<?xml version="1.0" encoding="UTF-8"?>
<svg version="1.1" xmlns="http://www.w3.org/2000/svg" width="500" height="500">
<path d="M0 0 C1.9375 0.6875 1.9375 0.6875 3.9375 1.6875 C3.9375 2.3475 3.9375 3.0075 3.9375 3.6875 C4.5975 3.6875 5.2575 3.6875 5.9375 3.6875 C5.9375 4.3475 5.9375 5.0075 5.9375 5.6875 C9.33402388 6.81967463 12.436963 7.11837341 16 7.5 C30.66102483 9.24203713 44.51785632 12.39714403 57.9375 18.6875 C58.67081543 19.03022949 59.40413086 19.37295898 60.15966797 19.72607422 C72.58081564 25.64721065 83.40124485 32.86141561 93.9375 41.6875 C94.53288574 42.17976074 95.12827148 42.67202148 95.74169922 43.17919922 C105.83577861 51.62573264 114.31480188 61.70035295 120.91796875 73.109375 C122.71207024 75.91843259 122.71207024 75.91843259 125.734375 76.4921875 C126.70890625 76.51539063 127.6834375 76.53859375 128.6875 76.5625 C129.67234375 76.60117188 130.6571875 76.63984375 131.671875 76.6796875 C132.41953125 76.68226563 133.1671875 76.68484375 133.9375 76.6875 C133.6075 77.533125 133.2775 78.37875 132.9375 79.25 C130.85135147 86.42113556 132.10401115 90.36435313 135.5 96.68359375 C143.87599134 114.18668436 147.10517538 136.40843411 145.9375 155.6875 C145.89641113 156.37328125 145.85532227 157.0590625 145.81298828 157.765625 C143.77565545 188.80077821 133.57969176 217.42562899 113.9375 241.6875 C113.10583281 242.74535696 112.27512398 243.80396799 111.4453125 244.86328125 C106.88805929 250.59260757 106.88805929 250.59260757 104.9375 252.6875 C104.2775 252.6875 103.6175 252.6875 102.9375 252.6875 C102.9375 253.3475 102.9375 254.0075 102.9375 254.6875 C102.2775 254.6875 101.6175 254.6875 100.9375 254.6875 C100.9375 255.3475 100.9375 256.0075 100.9375 256.6875 C100.2775 256.6875 99.6175 256.6875 98.9375 256.6875 C98.9375 257.3475 98.9375 258.0075 98.9375 258.6875 C97.11972446 260.28150216 95.30590527 261.74070422 93.375 263.1875 C92.79073242 263.62819824 92.20646484 264.06889648 91.60449219 264.52294922 C89.72554851 265.92543579 87.8349145 267.31011762 85.9375 268.6875 C85.3388916 269.12223633 84.7402832 269.55697266 84.12353516 270.00488281 C60.18132468 287.16705603 32.3225875 296.0210341 2.9375 296.6875 C1.95523438 296.71585937 0.97296875 296.74421875 -0.0390625 296.7734375 C-2.71984452 296.81297706 -5.38275067 296.7704177 -8.0625 296.6875 C-9.17496094 296.65914063 -10.28742188 296.63078125 -11.43359375 296.6015625 C-40.06784835 295.32892896 -69.04810304 284.01809559 -91.0625 265.6875 C-91.95074463 264.95515137 -91.95074463 264.95515137 -92.85693359 264.20800781 C-94.76755923 262.62798262 -96.66759298 261.03633546 -98.5625 259.4375 C-99.15071533 258.9420166 -99.73893066 258.4465332 -100.3449707 257.93603516 C-103.63794663 255.10122484 -106.5452659 252.26592102 -109.0625 248.6875 C-109.0625 248.0275 -109.0625 247.3675 -109.0625 246.6875 C-109.7225 246.6875 -110.3825 246.6875 -111.0625 246.6875 C-112.69952241 244.82835373 -114.2007933 242.97492488 -115.6875 241 C-116.13335449 240.41130127 -116.57920898 239.82260254 -117.03857422 239.21606445 C-129.88085417 222.00209085 -139.26327637 202.81516278 -144.3125 181.9375 C-144.47588867 181.26468994 -144.63927734 180.59187988 -144.80761719 179.89868164 C-146.93371909 170.57715276 -147.22394203 161.27959094 -147.1875 151.75 C-147.19330078 150.23889648 -147.19330078 150.23889648 -147.19921875 148.69726562 C-147.18685963 139.08805032 -146.61074925 129.72575336 -144.3125 120.375 C-144.138396 119.65642822 -143.96429199 118.93785645 -143.78491211 118.19750977 C-139.38554166 100.63683469 -139.38554166 100.63683469 -134.125 93.375 C-132.57099131 91.11902477 -132.04301313 90.14739021 -132.16015625 87.3828125 C-132.66787605 85.08867117 -133.33316871 82.91957435 -134.0625 80.6875 C-134.5575 78.2125 -134.5575 78.2125 -135.0625 75.6875 C-131.4325 76.0175 -127.8025 76.3475 -124.0625 76.6875 C-123.4025 75.0375 -122.7425 73.3875 -122.0625 71.6875 C-120.41338062 69.02699981 -118.5123914 66.55844006 -116.625 64.0625 C-115.83343506 63.0115918 -115.83343506 63.0115918 -115.02587891 61.93945312 C-110.23425987 55.6990723 -105.08372229 49.78072029 -99.0625 44.6875 C-98.4025 44.6875 -97.7425 44.6875 -97.0625 44.6875 C-96.76085937 43.84445313 -96.76085937 43.84445313 -96.453125 42.984375 C-94.52624739 39.8017794 -91.81873727 38.01449235 -88.8125 35.9375 C-88.1942334 35.50356934 -87.5759668 35.06963867 -86.93896484 34.62255859 C-80.55104323 30.21158162 -73.88902284 26.37192847 -67.0625 22.6875 C-66.35996094 22.30078125 -65.65742188 21.9140625 -64.93359375 21.515625 C-63.00309027 20.49825384 -61.05313758 19.58204939 -59.0625 18.6875 C-58.05832031 18.22730469 -57.05414063 17.76710938 -56.01953125 17.29296875 C-43.14703981 11.74811148 -29.04652013 7.82913117 -15 7.1875 C-10.98088742 6.99693863 -10.31856647 6.891308 -7 4.25 C-6.0409375 2.9815625 -6.0409375 2.9815625 -5.0625 1.6875 C-2.0625 -0.3125 -2.0625 -0.3125 0 0 Z M-76.0625 41.6875 C-76.63919434 42.04521484 -77.21588867 42.40292969 -77.81005859 42.77148438 C-79.26258266 43.6902982 -80.66776875 44.6831247 -82.0625 45.6875 C-82.0625 46.3475 -82.0625 47.0075 -82.0625 47.6875 C-82.73152344 47.86667969 -83.40054688 48.04585937 -84.08984375 48.23046875 C-88.41038676 50.34815934 -91.30075875 53.57116119 -94.625 57 C-95.6140332 57.99676758 -95.6140332 57.99676758 -96.62304688 59.01367188 C-102.97831644 64.5815171 -102.97831644 64.5815171 -106.0625 71.6875 C-106.7225 71.6875 -107.3825 71.6875 -108.0625 71.6875 C-109.0525 73.9975 -110.0425 76.3075 -111.0625 78.6875 C-109.60457031 78.92533203 -109.60457031 78.92533203 -108.1171875 79.16796875 C-90.03465689 82.19546156 -72.10407499 85.79188944 -55.0625 92.6875 C-54.92001831 91.79780518 -54.92001831 91.79780518 -54.7746582 90.89013672 C-50.74954059 66.20434122 -42.95378804 45.57595437 -26.0625 26.6875 C-25.03678347 25.46240531 -24.01503259 24.23396119 -23 23 C-22.0409375 21.8553125 -22.0409375 21.8553125 -21.0625 20.6875 C-40.61510939 20.6875 -60.10189791 31.31992941 -76.0625 41.6875 Z M20.9375 21.6875 C24.78090561 26.90266959 24.78090561 26.90266959 28.8359375 31.953125 C42.38882098 48.13087524 51.04390095 67.94318079 53.41015625 88.87890625 C53.58417969 89.80574219 53.75820313 90.73257813 53.9375 91.6875 C54.9275 92.1825 54.9275 92.1825 55.9375 92.6875 C58.25067247 91.87468114 60.48674208 90.99800918 62.75 90.0625 C77.8670369 84.11615261 93.95307476 81.26428153 109.9375 78.6875 C103.93546938 69.31393758 103.93546938 69.31393758 96.9375 60.6875 C96.2775 60.6875 95.6175 60.6875 94.9375 60.6875 C94.9375 60.0275 94.9375 59.3675 94.9375 58.6875 C94.2775 58.6875 93.6175 58.6875 92.9375 58.6875 C92.9375 58.0275 92.9375 57.3675 92.9375 56.6875 C92.2775 56.6875 91.6175 56.6875 90.9375 56.6875 C90.9375 56.0275 90.9375 55.3675 90.9375 54.6875 C90.2775 54.6875 89.6175 54.6875 88.9375 54.6875 C88.9375 54.0275 88.9375 53.3675 88.9375 52.6875 C86.6029538 50.71677918 84.26547083 48.87617123 81.8125 47.0625 C81.08401855 46.52270508 80.35553711 45.98291016 79.60498047 45.42675781 C63.3053175 33.5395933 41.7158958 20.66561168 20.9375 21.6875 Z " fill="#F3F9F9" transform="translate(250.0625,100.3125)"/>
<path d="M0 0 C3 1 3 1 4.46484375 3.81640625 C4.97096326 5.05900756 5.46076553 6.30833126 5.9375 7.5625 C6.19692383 8.23216797 6.45634766 8.90183594 6.72363281 9.59179688 C11.2957264 21.77271535 13.53458495 34.10434759 15 47 C15.20682751 48.41688729 15.41484348 49.83360265 15.625 51.25 C19.21329739 87.13297393 6.45854147 124.25939739 -16 152 C-16.83166719 153.05785696 -17.66237602 154.11646799 -18.4921875 155.17578125 C-23.04944071 160.90510757 -23.04944071 160.90510757 -25 163 C-25.66 163 -26.32 163 -27 163 C-27 163.66 -27 164.32 -27 165 C-27.66 165 -28.32 165 -29 165 C-29 165.66 -29 166.32 -29 167 C-29.66 167 -30.32 167 -31 167 C-31 167.66 -31 168.32 -31 169 C-32.81777554 170.59400216 -34.63159473 172.05320422 -36.5625 173.5 C-37.14676758 173.94069824 -37.73103516 174.38139648 -38.33300781 174.83544922 C-40.21195149 176.23793579 -42.1025855 177.62261762 -44 179 C-44.5986084 179.43473633 -45.1972168 179.86947266 -45.81396484 180.31738281 C-69.75617532 197.47955603 -97.6149125 206.3335341 -127 207 C-127.98226562 207.02835938 -128.96453125 207.05671875 -129.9765625 207.0859375 C-132.65734452 207.12547706 -135.32025067 207.0829177 -138 207 C-139.11246094 206.97164062 -140.22492188 206.94328125 -141.37109375 206.9140625 C-170.00534835 205.64142896 -198.98560304 194.33059559 -221 176 C-221.59216309 175.51176758 -222.18432617 175.02353516 -222.79443359 174.52050781 C-224.70505923 172.94048262 -226.60509298 171.34883546 -228.5 169.75 C-229.08821533 169.2545166 -229.67643066 168.7590332 -230.2824707 168.24853516 C-233.57544663 165.41372484 -236.4827659 162.57842102 -239 159 C-239 158.34 -239 157.68 -239 157 C-239.66 157 -240.32 157 -241 157 C-242.63702241 155.14085373 -244.1382933 153.28742488 -245.625 151.3125 C-246.07085449 150.72380127 -246.51670898 150.13510254 -246.97607422 149.52856445 C-259.81835417 132.31459085 -269.20077637 113.12766278 -274.25 92.25 C-274.41338867 91.57718994 -274.57677734 90.90437988 -274.74511719 90.21118164 C-276.87121909 80.88965276 -277.16144203 71.59209094 -277.125 62.0625 C-277.13080078 60.55139648 -277.13080078 60.55139648 -277.13671875 59.00976562 C-277.12435926 49.40026443 -276.5474835 40.0386211 -274.25 30.6875 C-274.07662109 29.96965332 -273.90324219 29.25180664 -273.72460938 28.51220703 C-271.32261775 18.90211862 -268.38984392 9.38420165 -263 1 C-262.01 1 -261.02 1 -260 1 C-259.91197848 4.9790243 -259.85926767 8.95779388 -259.8125 12.9375 C-259.78736328 14.05447266 -259.76222656 15.17144531 -259.73632812 16.32226562 C-259.67544418 23.24274125 -260.40307592 28.57244251 -263 35 C-262.34 35 -261.68 35 -261 35 C-261 33.35 -261 31.7 -261 30 C-260.34 29.67 -259.68 29.34 -259 29 C-258.51826171 31.66622447 -258.03955375 34.33293671 -257.5625 37 C-257.42779297 37.74378906 -257.29308594 38.48757812 -257.15429688 39.25390625 C-256.49835248 42.93359434 -255.90476552 46.60028338 -255.46484375 50.3125 C-254.92685083 54.58027574 -254.25038504 57.84571571 -252.109375 61.57421875 C-251.73256592 62.23703857 -251.35575684 62.8998584 -250.9675293 63.58276367 C-250.56574463 64.27732666 -250.16395996 64.97188965 -249.75 65.6875 C-248.91726983 67.13501481 -248.08523215 68.58292824 -247.25390625 70.03125 C-246.85703613 70.7221875 -246.46016602 71.413125 -246.05126953 72.125 C-244.84642475 74.27391033 -243.77252146 76.47620152 -242.6875 78.6875 C-229.47088182 102.55973077 -202.74616776 114.51036633 -178.5 123.625 C-158.23385555 131.32055967 -144.75699991 143.66234376 -135.2265625 163.17578125 C-133.96798481 166.07371651 -132.95186383 168.98872986 -132 172 C-129.95297016 169.36704763 -128.2128188 166.73144787 -126.6171875 163.8046875 C-114.57761238 142.10437756 -100.13964376 129.66368955 -76.875 120.625 C-55.58095739 112.16640278 -55.58095739 112.16640278 -37 99 C-35.77410156 98.00419922 -35.77410156 98.00419922 -34.5234375 96.98828125 C-26.19837219 90.01636123 -19.32483609 81.19692308 -14.625 71.375 C-13.06263864 68.13009563 -11.54443997 66.45670066 -9 64 C-8.3574765 61.93125966 -8.3574765 61.93125966 -8 60 C-7.34 59.34 -6.68 58.68 -6 58 C-5.04147717 55.1244315 -5 53.12889911 -5 50 C-4.649375 49.195625 -4.29875 48.39125 -3.9375 47.5625 C-2.83204495 44.54092286 -3.35148865 43.08042892 -4 40 C-3.34 39.01 -2.68 38.02 -2 37 C-2.185625 36.195625 -2.37125 35.39125 -2.5625 34.5625 C-3 32 -3 32 -1.5 29.875 C-1.005 29.25625 -0.51 28.6375 0 28 C-0.33 27.01 -0.66 26.02 -1 25 C-1.09272108 23.42006785 -1.13068385 21.83655537 -1.1328125 20.25390625 C-1.13410156 19.33416016 -1.13539063 18.41441406 -1.13671875 17.46679688 C-1.13285156 16.50837891 -1.12898438 15.54996094 -1.125 14.5625 C-1.12886719 13.60794922 -1.13273437 12.65339844 -1.13671875 11.66992188 C-1.13478516 10.28836914 -1.13478516 10.28836914 -1.1328125 8.87890625 C-1.13168457 8.0391626 -1.13055664 7.19941895 -1.12939453 6.33422852 C-1.0051229 4.09241513 -0.62396739 2.15104546 0 0 Z " fill="#233D48" transform="translate(380,190)"/>
<path d="M0 0 C0 3 0 3 -1.53125 4.82421875 C-2.1809375 5.43910156 -2.830625 6.05398437 -3.5 6.6875 C-4.1496875 7.31011719 -4.799375 7.93273437 -5.46875 8.57421875 C-5.9740625 9.04472656 -6.479375 9.51523438 -7 10 C-6.38125 10.144375 -5.7625 10.28875 -5.125 10.4375 C-3 11 -3 11 -1 12 C-0.38125 11.175 0.2375 10.35 0.875 9.5 C1.57625 8.675 2.2775 7.85 3 7 C3.66 7 4.32 7 5 7 C3.28298961 11.19943505 0.33327667 14.26410687 -2.625 17.625 C-3.71952987 18.89255617 -4.81327871 20.16078718 -5.90625 21.4296875 C-7.6664484 23.46584921 -9.43522644 25.49192848 -11.21875 27.5078125 C-22.87287882 41.21574272 -30.79093207 58.12478976 -33 76 C-33.15984375 77.07121094 -33.3196875 78.14242187 -33.484375 79.24609375 C-33.77513678 82.73951097 -33.779484 85.57369672 -33 89 C-30.68676821 91.50676912 -28.25833547 93.00894572 -25.3515625 94.7890625 C-9.75303453 104.49749712 -1.16480446 120.75504731 6 137 C6.28681641 137.64001953 6.57363281 138.28003906 6.86914062 138.93945312 C9 143.76507611 9 143.76507611 9 146 C10.32 145.67 11.64 145.34 13 145 C13.33 142.36 13.66 139.72 14 137 C14.66 137 15.32 137 16 137 C16.350625 135.80375 16.70125 134.6075 17.0625 133.375 C20.85876745 122.16276824 26.0202193 111.93732143 35 104 C35.66 104 36.32 104 37 104 C37.33 103.01 37.66 102.02 38 101 C39.7421875 99.17578125 39.7421875 99.17578125 41.875 97.3125 C42.92300781 96.37857422 42.92300781 96.37857422 43.9921875 95.42578125 C46 94 46 94 49 94 C48.67 94.99 48.34 95.98 48 97 C48.16666667 99.08333333 48.16666667 99.08333333 49 101 C49.99 101.66 50.98 102.32 52 103 C51.39414062 103.41507812 50.78828125 103.83015625 50.1640625 104.2578125 C31.23238249 118.17987872 23.25930926 140.2638371 19.75878906 162.69458008 C19.50814614 164.36346017 19.26745981 166.03387446 19.03808594 167.70581055 C18.48543443 171.60777763 17.76538838 174.46922323 16 178 C15.75889241 181.05014928 15.75889241 181.05014928 15.875 184.25 C15.89304688 185.32765625 15.91109375 186.4053125 15.9296875 187.515625 C15.95289063 188.33546875 15.97609375 189.1553125 16 190 C20.33922583 185.7493298 24.63409999 181.51269446 28.5625 176.875 C31.4346674 173.51861038 34.56083794 170.71657555 37.92895508 167.86938477 C39.85861308 166.12761991 41.50063788 164.34975327 43.171875 162.36328125 C47.30581592 157.5730717 51.75395507 153.13563625 56.25 148.6875 C57.05179688 147.89021484 57.85359375 147.09292969 58.6796875 146.27148438 C60.15801662 144.80180768 61.63737865 143.3331686 63.11816406 141.8659668 C64.74971048 140.24817888 66.37674765 138.6261035 68 137 C67.55212676 141.64973854 65.97814403 143.37027468 62.4375 146.3125 C61.19806641 147.35857422 61.19806641 147.35857422 59.93359375 148.42578125 C59.29550781 148.94527344 58.65742188 149.46476563 58 150 C58.61875 150.28875 59.2375 150.5775 59.875 150.875 C62 152 62 152 64 154 C61.81898323 156.38102267 59.62901221 158.75363725 57.4375 161.125 C56.82841797 161.79015625 56.21933594 162.4553125 55.59179688 163.140625 C52.07360742 166.93803584 48.45957913 170.41076416 44.48510742 173.72607422 C42.77935276 175.1892713 41.35010037 176.75381178 39.9375 178.5 C37.07505593 181.8817083 34.02653118 184.99795832 30.86791992 188.09863281 C28.41788979 190.51055634 26.00445717 192.95752524 23.59277344 195.40771484 C22.27292897 196.72715469 20.910978 198.00432029 19.5390625 199.26953125 C14.68234267 204.29474952 14.49879822 208.84651195 14.5625 215.5625 C14.65138257 218.38355555 14.80856215 221.18312876 15 224 C15.48726562 223.24976563 15.97453125 222.49953125 16.4765625 221.7265625 C22.45900124 213.09009639 29.07412689 207.47266131 38 202 C38.59586914 201.63390625 39.19173828 201.2678125 39.80566406 200.890625 C47.63438057 196.19084086 55.53536921 193.01590294 64.22631836 190.27929688 C88.26044565 182.56368619 106.63022365 167.03295485 119 145 C121.98767328 138.55695691 124.2408933 131.876508 126 125 C126.33 125 126.66 125 127 125 C127 127.31 127 129.62 127 132 C127.5775 131.34 128.155 130.68 128.75 130 C131 128 131 128 135 128 C135.33 125.69 135.66 123.38 136 121 C136.99 121 137.98 121 139 121 C138.21681311 124.91593446 136.60820142 128.36406635 135 132 C135.66 132.33 136.32 132.66 137 133 C135.25 138.75 135.25 138.75 133 141 C132.731875 141.556875 132.46375 142.11375 132.1875 142.6875 C130.8255837 145.33965279 129.09788015 147.62724189 127.33984375 150.02734375 C125.97199107 152.04123764 124.86750879 154.08845186 123.75 156.25 C111.11628026 179.35950598 88.85935195 190.93076398 65.48046875 200.1875 C43.70207475 208.8487754 28.00162945 219.24342162 16.8125 240.3125 C15.96969367 241.89452039 15.12220788 243.47405883 14.26953125 245.05078125 C13.90448486 245.73825439 13.53943848 246.42572754 13.16333008 247.1340332 C11.96732748 249.05240631 10.65660931 250.47144066 9 252 C8.5978125 250.92685547 8.5978125 250.92685547 8.1875 249.83203125 C-0.22985697 228.42868606 -12.87054819 214.06250446 -34 204.8125 C-38.40801627 202.99972153 -42.84987926 201.2977881 -47.3125 199.625 C-75.67089393 188.74449563 -96.81349424 171.93817542 -110 144 C-111.06932231 141.99800999 -112.14075444 139.9983812 -113.23828125 138.01171875 C-114.35114216 135.07262454 -114.58435802 132.11421301 -115 129 C-115.64502885 125.51223437 -116.35440015 122.03794416 -117.0625 118.5625 C-117.24876953 117.64017578 -117.43503906 116.71785156 -117.62695312 115.76757812 C-118.0828737 113.51135577 -118.5405964 111.25551526 -119 109 C-119.33 110.65 -119.66 112.3 -120 114 C-120.66 114 -121.32 114 -122 114 C-121.125 107.25 -121.125 107.25 -120 105 C-119.84655791 103.11527141 -119.75040429 101.22572126 -119.68359375 99.3359375 C-119.64169922 98.21445313 -119.59980469 97.09296875 -119.55664062 95.9375 C-119.51732422 94.761875 -119.47800781 93.58625 -119.4375 92.375 C-119.39431641 91.19164062 -119.35113281 90.00828125 -119.30664062 88.7890625 C-119.20032574 85.85949672 -119.09829358 82.92984412 -119 80 C-119.66 79.67 -120.32 79.34 -121 79 C-121.59765625 77.109375 -121.59765625 77.109375 -122.0625 74.75 C-122.29646484 73.59757812 -122.29646484 73.59757812 -122.53515625 72.421875 C-122.68855469 71.62265625 -122.84195313 70.8234375 -123 70 C-123.33288565 68.33324386 -123.66609844 66.66655292 -124 65 C-123.35675781 65.06058594 -122.71351562 65.12117188 -122.05078125 65.18359375 C-120.69533203 65.30927734 -120.69533203 65.30927734 -119.3125 65.4375 C-117.79462891 65.57865234 -117.79462891 65.57865234 -116.24609375 65.72265625 C-114.15692246 65.90115344 -112.0655938 66.05666721 -109.97265625 66.18359375 C-88.89189139 67.4861883 -63.96905118 71.37105265 -45 81 C-44.81993408 79.97398682 -44.81993408 79.97398682 -44.63623047 78.92724609 C-39.94814641 52.69955475 -30.87823635 29.63584657 -11 11 C-13.64 11 -16.28 11 -19 11 C-16.38019287 9.42811572 -14.86515394 8.99481361 -11.75 8.875 C-6.29532005 7.60224135 -3.60862488 4.11476967 0 0 Z " fill="#F1F6F7" transform="translate(239,111)"/>
<path d="M0 0 C0.69018368 28.14415654 -3.78819078 52.62982767 -22 75 C-23.06734375 76.31677734 -23.06734375 76.31677734 -24.15625 77.66015625 C-35.84004833 91.35475321 -50.97847522 99.64066359 -67.9375 104.9375 C-85.76487321 110.53720972 -103.14245325 120.06901523 -113.609375 135.9453125 C-114.06828125 136.62335938 -114.5271875 137.30140625 -115 138 C-115.33 138 -115.66 138 -116 138 C-117.86100963 120.19822102 -117.86100963 120.19822102 -112.87695312 113.82543945 C-110.9340829 111.69069357 -108.92158926 109.66601341 -106.81103516 107.69677734 C-104.79638153 105.80922778 -102.85687572 103.85974386 -100.91796875 101.89453125 C-98.20294525 99.14544495 -95.46327051 96.42626196 -92.69921875 93.7265625 C-89.7151291 90.78167145 -86.98721693 87.69694592 -84.29370117 84.48730469 C-82.76801463 82.73329781 -81.12450678 81.26617735 -79.3125 79.8125 C-75.14472615 76.28592213 -71.5508027 72.34801798 -67.94458008 68.26293945 C-65.94210142 66.01662331 -63.98373997 63.98734742 -61.60546875 62.13671875 C-59.40962059 60.33592573 -57.79114203 58.67604172 -55.96875 56.53125 C-52.83436862 52.86768735 -49.51181986 49.42829529 -46.09375 46.03125 C-45.56144775 45.50217041 -45.02914551 44.97309082 -44.48071289 44.42797852 C-42.26500049 42.23072763 -40.04475356 40.03808505 -37.82470703 37.84521484 C-32.28403534 32.36630482 -26.79824794 26.9053472 -21.73925781 20.97070312 C-18.05858107 16.80023391 -14.06568868 12.92261212 -10.125 9 C-9.25875 8.12988281 -8.3925 7.25976562 -7.5 6.36328125 C-6.26636719 5.13158203 -6.26636719 5.13158203 -5.0078125 3.875 C-4.26160645 3.12992188 -3.51540039 2.38484375 -2.74658203 1.6171875 C-1 0 -1 0 0 0 Z " fill="#0E222B" transform="translate(369,198)"/>
<path d="M0 0 C5.88592338 4.80483541 10.73074505 10.04420151 15.5625 15.890625 C18.28897323 19.15671273 20.98745868 21.80028852 24.33203125 24.45703125 C26.47661956 26.440901 28.18923123 28.64475211 30 30.9375 C34.31162822 36.34530489 39.04447425 41.15946934 43.97314453 46.00415039 C47.63055834 49.60626961 51.10023229 53.28202899 54.421875 57.19921875 C57.43601371 60.63861961 60.73931938 63.79686081 64 67 C65.66666667 68.66666667 67.33333333 70.33333333 69 72 C70.63492834 73.62418962 72.27035942 75.2478733 73.90625 76.87109375 C75.29588886 78.2538337 76.68551954 79.63658197 78.07470703 81.01977539 C79.49470185 82.43222999 80.91726878 83.84209719 82.33984375 85.25195312 C90.04709688 92.93187557 90.04709688 92.93187557 92.921875 96.45703125 C94.75193188 98.69644296 96.51592778 100.43600973 98.75 102.25 C103.63456545 106.41298192 107.83402214 111.12925146 112 116 C112.7425 116.73347656 113.485 117.46695313 114.25 118.22265625 C116.77839302 122.23535143 116.44023497 125.67735171 116.25 130.3125 C116.23195313 131.14845703 116.21390625 131.98441406 116.1953125 132.84570312 C116.14841126 134.89763228 116.07667411 136.94896756 116 139 C113.09682478 136.15104367 110.36577773 133.28870145 107.8125 130.125 C96.90838125 117.68312091 80.28636617 111.60211727 65.01782227 106.42919922 C42.20882194 98.67187969 20.87684182 81.92701977 10 60 C8.47103116 56.38607364 7.16220206 52.74741531 6 49 C5.76079834 48.23059082 5.52159668 47.46118164 5.27514648 46.66845703 C3.12249575 39.33622005 2.09364924 32.08952649 1.3125 24.5 C1.18294922 23.35402344 1.05339844 22.20804688 0.91992188 21.02734375 C0.16332607 13.98980182 -0.16903903 7.07638522 0 0 Z " fill="#081A22" transform="translate(129,196)"/>
<path d="M0 0 C0 3 0 3 -1.53125 4.82421875 C-2.1809375 5.43910156 -2.830625 6.05398437 -3.5 6.6875 C-4.1496875 7.31011719 -4.799375 7.93273437 -5.46875 8.57421875 C-5.9740625 9.04472656 -6.479375 9.51523438 -7 10 C-6.38125 10.144375 -5.7625 10.28875 -5.125 10.4375 C-3 11 -3 11 -1 12 C-0.38125 11.175 0.2375 10.35 0.875 9.5 C1.57625 8.675 2.2775 7.85 3 7 C3.66 7 4.32 7 5 7 C3.28298961 11.19943505 0.33327667 14.26410687 -2.625 17.625 C-3.71952987 18.89255617 -4.81327871 20.16078718 -5.90625 21.4296875 C-7.6664484 23.46584921 -9.43522644 25.49192848 -11.21875 27.5078125 C-22.86267296 41.20373827 -30.81460179 58.13234608 -33 76 C-33.22236328 77.62421875 -33.22236328 77.62421875 -33.44921875 79.28125 C-33.70618613 82.75241587 -33.76534429 85.59464787 -33 89 C-30.59823621 91.42740539 -28.31082088 92.87147386 -25.28515625 94.4375 C-23 96 -23 96 -22.15625 98.54296875 C-22.00184757 100.97094698 -22.23460534 102.70381602 -23 105 C-25 103.625 -25 103.625 -27 102 C-27 101.34 -27 100.68 -27 100 C-27.53625 100.226875 -28.0725 100.45375 -28.625 100.6875 C-32.79623803 101.23634711 -35.75542867 98.76336625 -39.22265625 96.63671875 C-59.42706308 84.24510949 -80.7889658 81.068948 -104 78 C-102.56529463 79.61836721 -101.12713047 81.23366863 -99.6875 82.84765625 C-98.88699219 83.74750244 -98.08648437 84.64734863 -97.26171875 85.57446289 C-94.98963214 88.12262551 -94.98963214 88.12262551 -92 90.4375 C-89.25800101 92.77962413 -87.34183767 94.99335172 -85.125 97.8125 C-80.44024155 103.69234989 -75.22527393 108.91833967 -69.84814453 114.1652832 C-65.95605982 117.97726216 -62.30414592 121.89648421 -58.75048828 126.0246582 C-55.8176642 129.33420906 -52.65609581 132.4052974 -49.5 135.5 C-45.11648925 139.83673062 -40.84083455 144.16599855 -36.890625 148.90625 C-35.23055379 150.74467597 -33.52334744 152.44558275 -31.734375 154.15625 C-30.84613037 155.01259033 -30.84613037 155.01259033 -29.93994141 155.88623047 C-28.75495806 157.02148086 -27.55966451 158.1460932 -26.35302734 159.25830078 C-22.81148127 162.66214904 -21.23121496 164.86702778 -21 170 C-22.98 170.66 -24.96 171.32 -27 172 C-30.74348958 168.25651042 -34.48697917 164.51302083 -38.23046875 160.76953125 C-38.88305664 160.11702393 -39.53564453 159.4645166 -40.20800781 158.79223633 C-41.65879619 157.34125029 -43.10881367 155.88949349 -44.55859375 154.4375 C-46.46909348 152.53005707 -48.38515277 150.62878714 -50.3046875 148.73046875 C-61.24776347 137.88473216 -61.24776347 137.88473216 -66.23828125 131.9765625 C-68.50804518 129.42999809 -70.93793016 127.07414771 -73.375 124.6875 C-77.93960854 120.18559213 -81.99816695 115.48525597 -85.9296875 110.41015625 C-88.08780432 107.89778252 -90.39557597 106.03444625 -93 104 C-94.1189587 102.82458008 -95.20433146 101.61607125 -96.25 100.375 C-99.10039105 97.04010539 -101.99852247 93.75732832 -104.9375 90.5 C-105.70964844 89.6440625 -106.48179687 88.788125 -107.27734375 87.90625 C-107.84582031 87.2771875 -108.41429687 86.648125 -109 86 C-109.67863152 114.09375752 -104.76735021 139.85083707 -87 162 C-86.0409375 163.21042969 -86.0409375 163.21042969 -85.0625 164.4453125 C-79.8050105 170.73239369 -73.66534192 175.30093395 -67 180 C-67.66 180.66 -68.32 181.32 -69 182 C-71.125 181.625 -71.125 181.625 -73 181 C-73.33 181.66 -73.66 182.32 -74 183 C-73.34 183.33 -72.68 183.66 -72 184 C-72.66 184.99 -73.32 185.98 -74 187 C-89.5668003 174.8055046 -101.50817556 161.99158056 -110 144 C-111.06932231 141.99800999 -112.14075444 139.9983812 -113.23828125 138.01171875 C-114.35114216 135.07262454 -114.58435802 132.11421301 -115 129 C-115.64502885 125.51223437 -116.35440015 122.03794416 -117.0625 118.5625 C-117.24876953 117.64017578 -117.43503906 116.71785156 -117.62695312 115.76757812 C-118.0828737 113.51135577 -118.5405964 111.25551526 -119 109 C-119.33 110.65 -119.66 112.3 -120 114 C-120.66 114 -121.32 114 -122 114 C-121.125 107.25 -121.125 107.25 -120 105 C-119.84655791 103.11527141 -119.75040429 101.22572126 -119.68359375 99.3359375 C-119.64169922 98.21445313 -119.59980469 97.09296875 -119.55664062 95.9375 C-119.51732422 94.761875 -119.47800781 93.58625 -119.4375 92.375 C-119.39431641 91.19164062 -119.35113281 90.00828125 -119.30664062 88.7890625 C-119.20032574 85.85949672 -119.09829358 82.92984412 -119 80 C-119.66 79.67 -120.32 79.34 -121 79 C-121.59765625 77.109375 -121.59765625 77.109375 -122.0625 74.75 C-122.29646484 73.59757812 -122.29646484 73.59757812 -122.53515625 72.421875 C-122.68855469 71.62265625 -122.84195313 70.8234375 -123 70 C-123.33288565 68.33324386 -123.66609844 66.66655292 -124 65 C-123.35675781 65.06058594 -122.71351562 65.12117188 -122.05078125 65.18359375 C-120.69533203 65.30927734 -120.69533203 65.30927734 -119.3125 65.4375 C-117.79462891 65.57865234 -117.79462891 65.57865234 -116.24609375 65.72265625 C-114.15692246 65.90115344 -112.0655938 66.05666721 -109.97265625 66.18359375 C-88.89189139 67.4861883 -63.96905118 71.37105265 -45 81 C-44.81993408 79.97398682 -44.81993408 79.97398682 -44.63623047 78.92724609 C-39.94814641 52.69955475 -30.87823635 29.63584657 -11 11 C-13.64 11 -16.28 11 -19 11 C-16.38019287 9.42811572 -14.86515394 8.99481361 -11.75 8.875 C-6.29532005 7.60224135 -3.60862488 4.11476967 0 0 Z " fill="#F2F8F8" transform="translate(239,111)"/>
<path d="M0 0 C28.6530809 3.48352419 54.27068192 8.33192644 77 27 C78.07121094 27.82564453 78.07121094 27.82564453 79.1640625 28.66796875 C94.7324503 41.22812225 103.24251539 59.79507868 107 79 C107.21269531 80.01835937 107.42539063 81.03671875 107.64453125 82.0859375 C109.62005113 92.9157659 109.65390326 104.02198026 110 115 C105.04838505 110.94969443 100.64843579 106.62894173 96.375 101.875 C92.77835724 97.87967279 89.254476 94.31470305 85 91 C84.00724247 89.92667838 83.04784021 88.82149857 82.125 87.6875 C78.46942422 83.39582182 74.50462086 79.46131451 70.5 75.5 C66.15607851 71.19841998 61.93948821 66.89689225 58 62.21875 C54.32937772 58.14665341 50.36963668 54.35160088 46.4753418 50.49487305 C42.74645374 46.7882387 39.18059264 43.03116015 35.79296875 39.0078125 C33.35667645 36.27958975 30.73594623 33.74639677 28.125 31.1875 C23.39627759 26.54752824 19.21418818 21.6640851 15.09375 16.46875 C12.568377 13.49107138 9.79380887 11.05386136 6.796875 8.56640625 C4.17083406 6.2771836 2.10915239 3.76826251 0 1 C0 0.67 0 0.34 0 0 Z " fill="#17313C" transform="translate(134,188)"/>
<path d="M0 0 C-2.28607271 3.14334997 -4.72650005 5.69319582 -7.68359375 8.18359375 C-11.94170839 11.8707098 -15.75424556 15.85665768 -19.5625 20 C-25.55424158 26.45100921 -31.66169714 32.75297977 -37.95141602 38.9140625 C-41.37632002 42.28958037 -44.59445738 45.75760733 -47.67895508 49.44799805 C-50.32400779 52.55548282 -53.13214048 55.33768616 -56.375 57.8125 C-58.59141652 59.65951377 -60.24940837 61.38544025 -62.09765625 63.5703125 C-66.19481187 68.30162818 -70.60191694 72.676322 -75.0625 77.0625 C-79.82517794 81.74612934 -84.45375472 86.42558028 -88.74145508 91.55004883 C-90.29029736 93.33444733 -91.97650136 94.8285011 -93.8125 96.3125 C-97.92442474 99.79303515 -101.40556793 103.69278011 -104.921875 107.765625 C-106.82575679 109.81265579 -108.70942108 111.41103985 -111 113 C-111.08256205 111.02156869 -111.13988122 109.04208061 -111.1875 107.0625 C-111.22230469 105.96035156 -111.25710937 104.85820312 -111.29296875 103.72265625 C-110.99224765 99.90149349 -110.05957514 97.057262 -108.77758789 93.48803711 C-107.32922232 88.85372203 -106.81549926 84.04441714 -106.125 79.25 C-102.34684125 55.24704442 -90.55953605 35.46991517 -71.00390625 20.79296875 C-54.64334186 9.07961493 -35.37107024 4.90847451 -15.9375 1.0625 C-14.25068115 0.72665894 -14.25068115 0.72665894 -12.52978516 0.3840332 C-11.47710449 0.18640381 -10.42442383 -0.01122559 -9.33984375 -0.21484375 C-8.40519287 -0.39136475 -7.47054199 -0.56788574 -6.50756836 -0.74975586 C-4.01869208 -0.99813461 -2.3574109 -0.77682302 0 0 Z " fill="#285060" transform="translate(365,189)"/>
<path d="M0 0 C19.89616478 19.89616478 37.25839369 42.37831072 41 71 C41.18304688 72.05960937 41.36609375 73.11921875 41.5546875 74.2109375 C41.92074731 77.82689411 41.96060393 80.47778559 41 84 C37.90988237 86.98371473 35.07122864 88.79143882 31.33203125 90.90234375 C27.55499361 93.28015056 25.72485657 95.5114293 23 99 C22.030625 99.763125 21.06125 100.52625 20.0625 101.3125 C11.02315591 108.61795456 6.28932797 121.51497606 2 132 C1.34 132 0.68 132 0 132 C0 88.44 0 44.88 0 0 Z " fill="#39697A" transform="translate(253,116)"/>
<path d="M0 0 C0.66 0 1.32 0 2 0 C2 44.22 2 88.44 2 134 C0.63869487 131.27738974 -0.65049045 128.58197277 -1.8828125 125.8046875 C-6.01636819 116.64875938 -9.99651361 108.34666993 -17 101 C-18.26650391 99.63488281 -18.26650391 99.63488281 -19.55859375 98.2421875 C-24.15905443 93.45248801 -28.51839686 89.59350012 -34.1875 86.125 C-37.35432428 83.90235015 -38.76129786 82.87014572 -39.79296875 79.109375 C-39.88158843 75.61522759 -39.55954604 72.44989074 -39 69 C-38.82339844 67.84757812 -38.64679688 66.69515625 -38.46484375 65.5078125 C-35.03759437 47.07865117 -26.49891825 30.03679706 -13.46484375 16.5703125 C-8.55277969 11.44806503 -3.93844921 5.90767382 0 0 Z " fill="#62A3B1" transform="translate(244,118)"/>
<path d="M0 0 C0.99 0 1.98 0 3 0 C3.08783475 3.9998593 3.14067102 7.99946704 3.1875 12 C3.21263672 13.12535156 3.23777344 14.25070313 3.26367188 15.41015625 C3.31398581 21.14594533 3.09483487 25.67873736 0.79296875 30.93603516 C-2.66260199 39.93030702 -2.35493294 50.14669409 -2.3125 59.625 C-2.31034485 60.28230103 -2.3081897 60.93960205 -2.30596924 61.61682129 C-2.24963383 72.35702129 -1.66919088 82.58565695 1 93 C1.17208984 93.69851074 1.34417969 94.39702148 1.52148438 95.11669922 C6.05693128 112.72139443 15.61666283 128.96156331 27 143 C28.20833333 144.58333333 29.41666667 146.16666667 30.625 147.75 C33.22981442 151.08669812 35.89086964 154.11295038 39 157 C39.64582031 157.60457031 40.29164063 158.20914063 40.95703125 158.83203125 C45.69424671 163.17102194 50.60440678 166.96853664 55.93359375 170.5546875 C58 172 58 172 60 174 C59.6875 176.3125 59.6875 176.3125 59 179 C58.7215625 180.3921875 58.7215625 180.3921875 58.4375 181.8125 C58.293125 182.534375 58.14875 183.25625 58 184 C48.89639594 182.78294063 41.37477687 174.5874468 34.5625 168.8125 C33.97154541 168.31387451 33.38059082 167.81524902 32.77172852 167.30151367 C29.46149816 164.44907609 26.53008228 161.59930625 24 158 C24 157.34 24 156.68 24 156 C23.34 156 22.68 156 22 156 C20.36297759 154.14085373 18.8617067 152.28742488 17.375 150.3125 C16.92914551 149.72380127 16.48329102 149.13510254 16.02392578 148.52856445 C3.18164583 131.31459085 -6.20077637 112.12766278 -11.25 91.25 C-11.41338867 90.57718994 -11.57677734 89.90437988 -11.74511719 89.21118164 C-13.87121909 79.88965276 -14.16144203 70.59209094 -14.125 61.0625 C-14.13080078 59.55139648 -14.13080078 59.55139648 -14.13671875 58.00976562 C-14.12435926 48.40026443 -13.5474835 39.0386211 -11.25 29.6875 C-11.07662109 28.96965332 -10.90324219 28.25180664 -10.72460938 27.51220703 C-8.32261775 17.90211862 -5.38984392 8.38420165 0 0 Z " fill="#13242C" transform="translate(117,191)"/>
<path d="M0 0 C53.50490744 6.50490744 53.50490744 6.50490744 67 20 C67.07519531 22.08789062 67.07519531 22.08789062 66.828125 24.65625 C66.74046875 25.59726563 66.6528125 26.53828125 66.5625 27.5078125 C66.459375 28.49523437 66.35625 29.48265625 66.25 30.5 C66.16234375 31.45648438 66.0746875 32.41296875 65.984375 33.3984375 C65.44454693 38.93167521 64.62390521 44.32065254 63.47265625 49.75878906 C62.85224783 52.70060173 62.35801984 55.6578781 61.875 58.625 C61.70742187 59.64851563 61.53984375 60.67203125 61.3671875 61.7265625 C61.24601562 62.47679687 61.12484375 63.22703125 61 64 C51.86463287 56.56423605 43.47050975 48.06333781 35.86328125 39.078125 C33.3992889 36.33002452 30.75982406 33.76965208 28.125 31.1875 C23.39626221 26.54754069 19.21418759 21.66408435 15.09375 16.46875 C12.568377 13.49107138 9.79380887 11.05386136 6.796875 8.56640625 C4.17083406 6.2771836 2.10915239 3.76826251 0 1 C0 0.67 0 0.34 0 0 Z " fill="#417383" transform="translate(134,188)"/>
<path d="M0 0 C-2.28607271 3.14334997 -4.72650005 5.69319582 -7.68359375 8.18359375 C-11.94170839 11.8707098 -15.75424556 15.85665768 -19.5625 20 C-25.55424158 26.45100921 -31.66169714 32.75297977 -37.95141602 38.9140625 C-41.37632002 42.28958037 -44.59445738 45.75760733 -47.67895508 49.44799805 C-51.0767998 53.43988475 -54.85781358 56.80459905 -59 60 C-64.29553619 54.70446381 -63.48504197 42.91308861 -64.24560547 35.65673828 C-64.8815904 29.71122372 -65.78717661 23.85767893 -67 18 C-50.77235214 8.95658662 -34.08725405 4.6544026 -15.9375 1.0625 C-14.8129541 0.83860596 -13.6884082 0.61471191 -12.52978516 0.3840332 C-11.47710449 0.18640381 -10.42442383 -0.01122559 -9.33984375 -0.21484375 C-8.40519287 -0.39136475 -7.47054199 -0.56788574 -6.50756836 -0.74975586 C-4.01869208 -0.99813461 -2.3574109 -0.77682302 0 0 Z " fill="#497C8C" transform="translate(365,189)"/>
<path d="M0 0 C5.88592338 4.80483541 10.73074505 10.04420151 15.5625 15.890625 C18.28897323 19.15671273 20.98745868 21.80028852 24.33203125 24.45703125 C26.47661956 26.440901 28.18923123 28.64475211 30 30.9375 C34.31097791 36.34448924 39.04296679 41.15805008 43.97094727 46.00195312 C47.64497464 49.62038172 51.13891988 53.30856843 54.46875 57.25 C56.74866525 59.85561743 59.22438386 62.24946047 61.71484375 64.65234375 C63 66 63 66 63 67 C58.32941582 66.71465884 53.66412608 66.37534662 49 66 C48.25669434 65.94086426 47.51338867 65.88172852 46.74755859 65.82080078 C34.17563152 64.77113702 23.8033733 62.62264694 12.875 55.953125 C10.90483998 54.77342668 10.90483998 54.77342668 8 55 C4.37204395 44.8331192 2.35763895 34.86244242 1.1875 24.125 C1.0639917 22.99731201 0.9404834 21.86962402 0.81323242 20.70776367 C0.12025991 13.78363114 -0.14933551 6.95676431 0 0 Z " fill="#1F3E4C" transform="translate(129,196)"/>
<path d="M0 0 C0.36236035 14.77624992 -0.40096183 29.16443717 -4.25 43.5 C-4.43006592 44.22437256 -4.61013184 44.94874512 -4.7956543 45.69506836 C-5.390625 47.71875 -5.390625 47.71875 -7 51 C-9.921875 52.28125 -9.921875 52.28125 -13 53 C-13.59296875 53.4640625 -14.1859375 53.928125 -14.796875 54.40625 C-18.2846926 56.92935209 -22.19605075 58.12289796 -26.25 59.5 C-27.16007812 59.81042236 -28.07015625 60.12084473 -29.0078125 60.44067383 C-37.26090415 63.08197069 -45.47020658 64.24022445 -54.09082031 64.9375 C-59.55700613 65.42925488 -63.03818414 65.80764745 -67 70 C-67.66 69.67 -68.32 69.34 -69 69 C-68.35933594 68.443125 -67.71867187 67.88625 -67.05859375 67.3125 C-66.19363281 66.549375 -65.32867187 65.78625 -64.4375 65 C-63.59058594 64.2575 -62.74367188 63.515 -61.87109375 62.75 C-59.73124153 60.70040005 -57.85232257 58.71111005 -55.94140625 56.46875 C-50.28717538 49.90204962 -43.98570686 43.93079585 -37.82470703 37.84521484 C-32.28403534 32.36630482 -26.79824794 26.9053472 -21.73925781 20.97070312 C-18.05858107 16.80023391 -14.06568868 12.92261212 -10.125 9 C-8.825625 7.69482422 -8.825625 7.69482422 -7.5 6.36328125 C-6.67757812 5.54214844 -5.85515625 4.72101563 -5.0078125 3.875 C-4.26160645 3.12992188 -3.51540039 2.38484375 -2.74658203 1.6171875 C-1 0 -1 0 0 0 Z " fill="#305B6A" transform="translate(369,198)"/>
<path d="M0 0 C-2.26169426 5.00723355 -5.49195487 8.84797484 -10 12 C-13.70280431 12.91961894 -17.19520223 13.11190582 -21 13 C-21 13.66 -21 14.32 -21 15 C-21.81339844 15.20753906 -22.62679687 15.41507813 -23.46484375 15.62890625 C-39.82223153 20.0264492 -55.76443654 26.34842473 -69.29296875 36.765625 C-71 38 -71 38 -73 38 C-73 38.66 -73 39.32 -73 40 C-74.36328125 41.12109375 -74.36328125 41.12109375 -76.3125 42.4375 C-83.36462056 47.55718895 -90.11372662 53.98396005 -95.0625 61.1875 C-95.701875 62.115625 -96.34125 63.04375 -97 64 C-97.66 64 -98.32 64 -99 64 C-99.66 65.98 -100.32 67.96 -101 70 C-105.97063121 70.91297308 -110.02936879 70.91297308 -115 70 C-113.47492206 60.13465207 -102.60807995 49.89376762 -96 43 C-95.39671875 42.35675781 -94.7934375 41.71351563 -94.171875 41.05078125 C-92.82926314 39.65277035 -91.42161441 38.31759385 -90 37 C-89.34 37 -88.68 37 -88 37 C-87.79890625 36.43796875 -87.5978125 35.8759375 -87.390625 35.296875 C-85.46374739 32.1142794 -82.75623727 30.32699235 -79.75 28.25 C-79.1317334 27.81606934 -78.5134668 27.38213867 -77.87646484 26.93505859 C-71.48854323 22.52408162 -64.82652284 18.68442847 -58 15 C-56.94619141 14.41992188 -56.94619141 14.41992188 -55.87109375 13.828125 C-53.94059027 12.81075384 -51.99063758 11.89454939 -50 11 C-48.99582031 10.53980469 -47.99164063 10.07960938 -46.95703125 9.60546875 C-32.33194393 3.3056765 -16.03751574 -1.36167586 0 0 Z " fill="#1F3239" transform="translate(241,108)"/>
<path d="M0 0 C17.45778763 -0.85624027 33.1560106 2.57325041 49 10 C49.73331543 10.34272949 50.46663086 10.68545898 51.22216797 11.03857422 C63.64331564 16.95971065 74.46374485 24.17391561 85 33 C85.59538574 33.49226074 86.19077148 33.98452148 86.80419922 34.49169922 C95.52812988 41.79171827 102.30978974 50.08671722 108.83691406 59.37890625 C109.78366793 60.69847923 110.80057065 61.96749814 111.8359375 63.21875 C113 65 113 65 113 69 C108.78206394 70.33972838 105.36681307 70.88944294 101 70 C95.36940232 65.60136143 90.9134533 58.46524749 88 52 C87.34 52 86.68 52 86 52 C86 51.34 86 50.68 86 50 C85.34 50 84.68 50 84 50 C84 49.34 84 48.68 84 48 C83.34 48 82.68 48 82 48 C82 47.34 82 46.68 82 46 C81.34 46 80.68 46 80 46 C80 45.34 80 44.68 80 44 C79.17628906 43.63261719 79.17628906 43.63261719 78.3359375 43.2578125 C75.50625345 41.73413647 73.15176735 39.86180063 70.625 37.875 C55.1658099 26.07443722 32.94330346 13.38591796 13.0625 12.75 C9.18184001 12.46763855 7.64038985 11.05593071 5.0625 8.1875 C2.99836907 5.58659743 1.3998885 3.00942213 0 0 Z " fill="#21333B" transform="translate(259,109)"/>
<path d="M0 0 C1.90909692 2.36728018 3.80346455 4.74245473 5.6484375 7.16015625 C9.67465067 12.42588046 13.68488541 17.13784262 18.875 21.3125 C24.34665319 25.78289706 28.60775595 31.50969494 33 37 C33.52406937 37.45168045 34.04813873 37.9033609 34.58808899 38.36872864 C36.40122657 40.46356279 36.36469778 41.54601865 36.34057617 44.2878418 C36.34023628 45.57884041 36.34023628 45.57884041 36.33988953 46.8959198 C36.32440567 47.82100845 36.30892181 48.74609711 36.29296875 49.69921875 C36.28872391 50.64940384 36.28447906 51.59958893 36.28010559 52.5785675 C36.26330484 55.61516588 36.22564992 58.65110202 36.1875 61.6875 C36.17245497 63.74543313 36.15876625 65.80337665 36.14648438 67.86132812 C36.11339671 72.90780748 36.06160462 77.95379144 36 83 C34.63820604 80.29330714 33.34612268 77.57433979 32.1171875 74.8046875 C27.98363181 65.64875938 24.00348639 57.34666993 17 50 C15.73349609 48.63488281 15.73349609 48.63488281 14.44140625 47.2421875 C9.84094557 42.45248801 5.48160314 38.59350012 -0.1875 35.125 C-3.35432428 32.90235015 -4.76129786 31.87014572 -5.79296875 28.109375 C-6.02211703 19.07438572 -4.47871694 7.96432708 0 0 Z " fill="#1A3440" transform="translate(210,169)"/>
<path d="M0 0 C2 1 2 1 2.81640625 3.2578125 C5.54778618 13.75431965 5.54778618 13.75431965 6 19 C6.25330078 20.485 6.25330078 20.485 6.51171875 22 C6.91109016 25.71028923 6.98522329 28.38751459 6 32 C2.90988237 34.98371473 0.07122864 36.79143882 -3.66796875 38.90234375 C-7.44500639 41.28015056 -9.27514343 43.5114293 -12 47 C-12.969375 47.763125 -13.93875 48.52625 -14.9375 49.3125 C-23.97684409 56.61795456 -28.71067203 69.51497606 -33 80 C-33.66 80 -34.32 80 -35 80 C-35.17326125 74.11026004 -35.30016863 68.22200767 -35.38452148 62.33032227 C-35.41968796 60.32712971 -35.46743146 58.32411637 -35.52807617 56.3215332 C-35.61316713 53.43916643 -35.6527245 50.55917627 -35.68359375 47.67578125 C-35.71972275 46.78288895 -35.75585175 45.88999664 -35.79307556 44.970047 C-35.79692319 38.85353092 -35.79692319 38.85353092 -33.48513794 36.37753296 C-31.61743164 35.05151367 -31.61743164 35.05151367 -29.75746155 33.99772644 C-27.06242667 32.46773134 -25.15235985 30.20754857 -23 28 C-22.05125 27.236875 -21.1025 26.47375 -20.125 25.6875 C-11.69901889 18.74845674 -5.4970351 9.3217794 0 0 Z " fill="#07181F" transform="translate(288,168)"/>
<path d="M0 0 C0.99 0.495 0.99 0.495 2 1 C1.21681311 4.91593446 -0.39179858 8.36406635 -2 12 C-1.01 12.495 -1.01 12.495 0 13 C-1.75 18.75 -1.75 18.75 -4 21 C-4.268125 21.556875 -4.53625 22.11375 -4.8125 22.6875 C-6.1744163 25.33965279 -7.90211985 27.62724189 -9.66015625 30.02734375 C-11.02800893 32.04123764 -12.13249121 34.08845186 -13.25 36.25 C-26.69563986 60.84466422 -51.61658225 73.34167318 -77 82 C-76.67 80.68 -76.34 79.36 -76 78 C-75.01 78 -74.02 78 -73 78 C-73 77.34 -73 76.68 -73 76 C-73.5775 76.165 -74.155 76.33 -74.75 76.5 C-77 77 -77 77 -81 77 C-81.33 76.34 -81.66 75.68 -82 75 C-82.66 74.67 -83.32 74.34 -84 74 C-82.88625 73.6596875 -81.7725 73.319375 -80.625 72.96875 C-53.32168164 64.39898536 -32.3118148 50.49209948 -18 25 C-15.01232672 18.55695691 -12.7591067 11.876508 -11 5 C-10.67 5 -10.34 5 -10 5 C-10 7.31 -10 9.62 -10 12 C-9.13375 11.01 -9.13375 11.01 -8.25 10 C-6 8 -6 8 -2 8 C-1.855625 6.865625 -1.71125 5.73125 -1.5625 4.5625 C-1 1 -1 1 0 0 Z " fill="#EFF5F6" transform="translate(376,231)"/>
<path d="M0 0 C0.66 0.33 1.32 0.66 2 1 C1.21681311 4.91593446 -0.39179858 8.36406635 -2 12 C-1.34 12.33 -0.68 12.66 0 13 C-1.75 18.75 -1.75 18.75 -4 21 C-4.268125 21.556875 -4.53625 22.11375 -4.8125 22.6875 C-6.16972508 25.33051725 -7.89067877 27.61059743 -9.640625 30.00390625 C-11.09979532 32.14653853 -12.33262174 34.34365174 -13.5625 36.625 C-15.41475347 40.05401354 -17.42949678 43.04868148 -20 46 C-21.32 45.67 -22.64 45.34 -24 45 C-24 44.34 -24 43.68 -24 43 C-25.32 42.67 -26.64 42.34 -28 42 C-26.58854546 38.00449793 -24.65402074 34.93332141 -22.1875 31.5 C-16.66434332 23.37063509 -13.42522069 14.48040817 -11 5 C-10.67 5 -10.34 5 -10 5 C-10 7.31 -10 9.62 -10 12 C-9.13375 11.01 -9.13375 11.01 -8.25 10 C-6 8 -6 8 -2 8 C-1.855625 6.865625 -1.71125 5.73125 -1.5625 4.5625 C-1 1 -1 1 0 0 Z " fill="#F0F6F7" transform="translate(376,231)"/>
<path d="M0 0 C3.30044105 1.65022052 5.11525558 3.14480829 7.4375 6.0625 C11.44062641 11.00567456 16.75987433 14.29164684 21.953125 17.86328125 C25 20 25 20 27 22 C26.6875 24.3125 26.6875 24.3125 26 27 C25.814375 27.928125 25.62875 28.85625 25.4375 29.8125 C25.293125 30.534375 25.14875 31.25625 25 32 C16.07913315 30.87484562 7.05859171 22.39878001 1 16 C0 13 0 13 0.625 11.0625 C0.74875 10.381875 0.8725 9.70125 1 9 C0.505 8.34 0.01 7.68 -0.5 7 C-2 5 -2 5 -1.75 2.8125 C-1 1 -1 1 0 0 Z " fill="#081C24" transform="translate(150,343)"/>
<path d="M0 0 C-0.78375 0.70125 -1.5675 1.4025 -2.375 2.125 C-5.08360818 5.09157086 -6.01722715 7.1582516 -7 11 C-7.66 11 -8.32 11 -9 11 C-9 11.66 -9 12.32 -9 13 C-7.68 13 -6.36 13 -5 13 C-5 12.01 -5 11.02 -5 10 C-3.68 10.33 -2.36 10.66 -1 11 C-0.34 9.68 0.32 8.36 1 7 C1 7.66 1 8.32 1 9 C1.99 9.33 2.98 9.66 4 10 C2.96101563 10.49628906 1.92203125 10.99257812 0.8515625 11.50390625 C-6.58002109 15.10644977 -13.57231847 18.73287911 -20.1796875 23.75 C-22 25 -22 25 -24 25 C-23.835 24.2575 -23.67 23.515 -23.5 22.75 C-22.88074304 19.80993422 -22.88074304 19.80993422 -23 16 C-22.34 15.67 -21.68 15.34 -21 15 C-21.33 14.01 -21.66 13.02 -22 12 C-22.66 11.67 -23.32 11.34 -24 11 C-6.75200535 -0.86564171 -6.75200535 -0.86564171 0 0 Z " fill="#263940" transform="translate(192,121)"/>
<path d="M0 0 C8.44781336 8.44781336 16.07298819 17.52785695 23.1875 27.125 C23.65687988 27.75196777 24.12625977 28.37893555 24.60986328 29.02490234 C26.77347269 31.9945148 28.26245207 34.40816594 29 38 C28.34 38 27.68 38 27 38 C27 37.34 27 36.68 27 36 C25.68 36 24.36 36 23 36 C22.01 35.34 21.02 34.68 20 34 C20.33 33.34 20.66 32.68 21 32 C20.67 31.67 20.34 31.34 20 31 C19.67 30.01 19.34 29.02 19 28 C17.35 28 15.7 28 14 28 C14.66 26.68 15.32 25.36 16 24 C15.525625 23.5875 15.05125 23.175 14.5625 22.75 C12.82060046 20.79907252 12.58221635 19.49521294 12 17 C11.34 16.67 10.68 16.34 10 16 C9.5978125 15.01 9.5978125 15.01 9.1875 14 C8.14044802 11.71525923 8.14044802 11.71525923 5.375 11.25 C4.59125 11.1675 3.8075 11.085 3 11 C2.67 13.97 2.34 16.94 2 20 C2.66 20.33 3.32 20.66 4 21 C3 25 3 25 2.47767639 26.76226807 C1.88073727 29.55870047 1.83604231 32.1936457 1.79467773 35.05371094 C1.77473251 36.27467468 1.75478729 37.49563843 1.73423767 38.75360107 C1.71752518 40.06725647 1.70081268 41.38091187 1.68359375 42.734375 C1.66301081 44.09629936 1.64201399 45.45821752 1.62062073 46.82012939 C1.56553835 50.39734872 1.51606836 53.97462438 1.46777344 57.55194092 C1.41745711 61.20525094 1.36182403 64.85847958 1.30664062 68.51171875 C1.19922838 75.67441017 1.09774615 82.83716946 1 90 C0.67 90 0.34 90 0 90 C0 60.3 0 30.6 0 0 Z " fill="#7A9EA7" transform="translate(253,116)"/>
<path d="M0 0 C-0.33 2.31 -0.66 4.62 -1 7 C-0.34 7 0.32 7 1 7 C1 7.66 1 8.32 1 9 C0.0925 9.0825 -0.815 9.165 -1.75 9.25 C-5.0650309 9.68923653 -5.0650309 9.68923653 -6.8125 12 C-9.77140745 14.70528682 -12.1706795 14.56045445 -16.07421875 14.7265625 C-16.70972656 14.81679687 -17.34523437 14.90703125 -18 15 C-18.33 15.66 -18.66 16.32 -19 17 C-20.32 16.67 -21.64 16.34 -23 16 C-23 16.99 -23 17.98 -23 19 C-24.32 19 -25.64 19 -27 19 C-27 18.34 -27 17.68 -27 17 C-26.34 16.67 -25.68 16.34 -25 16 C-24.896875 15.236875 -24.79375 14.47375 -24.6875 13.6875 C-23.77166382 10.10741312 -21.86278568 9.20214283 -19 7 C-19 6.01 -19 5.02 -19 4 C-15.43069089 2.36831584 -12.87952743 2 -9 2 C-8.01 1.34 -7.02 0.68 -6 0 C-3 -1 -3 -1 0 0 Z " fill="#192D36" transform="translate(210,115)"/>
<path d="M0 0 C0.66 0 1.32 0 2 0 C2 30.03 2 60.06 2 91 C1.67 91 1.34 91 1 91 C0.67 70.21 0.34 49.42 0 28 C-0.66 28 -1.32 28 -2 28 C-1.67 27.01 -1.34 26.02 -1 25 C-0.8803057 22.81488312 -0.82472547 20.62585853 -0.8125 18.4375 C-0.79123047 16.70306641 -0.79123047 16.70306641 -0.76953125 14.93359375 C-0.69012807 11.87683614 -0.69012807 11.87683614 -3 10 C-3.37125 11.134375 -3.7425 12.26875 -4.125 13.4375 C-4.93359375 15.375 -4.93359375 15.375 -6 17 C-9.1875 17.9375 -9.1875 17.9375 -12 18 C-12.33 19.98 -12.66 21.96 -13 24 C-15.475 23.01 -15.475 23.01 -18 22 C-16.8553125 20.6696875 -16.8553125 20.6696875 -15.6875 19.3125 C-14.45759096 17.87563511 -13.22858217 16.43799958 -12 15 C-11.55527344 14.48018555 -11.11054688 13.96037109 -10.65234375 13.42480469 C-9.16184201 11.68091765 -7.67443064 9.93443247 -6.1875 8.1875 C-5.44922974 7.32475464 -5.44922974 7.32475464 -4.69604492 6.44458008 C-2.07730852 3.40859116 -2.07730852 3.40859116 0 0 Z " fill="#8DC0C8" transform="translate(244,118)"/>
<path d="M0 0 C2.86867231 1.38264837 5.56024032 2.92148553 8.25 4.625 C8.95640625 5.07101562 9.6628125 5.51703125 10.390625 5.9765625 C10.92171875 6.31429688 11.4528125 6.65203125 12 7 C11 14.42857143 11 14.42857143 10 18 C5.50126516 17.46639094 2.84959851 15.75247024 -0.75 13.0625 C-1.71421875 12.35222656 -2.6784375 11.64195312 -3.671875 10.91015625 C-6 9 -6 9 -7 7 C-5.68 7.33 -4.36 7.66 -3 8 C-2.67 6.68 -2.34 5.36 -2 4 C-1.34 4 -0.68 4 0 4 C-0.33 3.01 -0.66 2.02 -1 1 C-0.67 0.67 -0.34 0.34 0 0 Z " fill="#0C222A" transform="translate(165,357)"/>
<path d="M0 0 C7.22260607 3.39462485 13.84167594 6.89221357 20 12 C19.01 12.33 18.02 12.66 17 13 C15.57707802 16.35515584 15.57707802 16.35515584 15 20 C15.66 20.99 16.32 21.98 17 23 C12.54154289 22.49046204 10.3769828 20.87043538 7 18 C5.3497306 16.9731657 3.68756133 15.96432076 2 15 C4.33333333 15 6.66666667 15 9 15 C8.814375 14.401875 8.62875 13.80375 8.4375 13.1875 C8 11 8 11 9 8 C7.02 8.33 5.04 8.66 3 9 C3 7.33333333 3 5.66666667 3 4 C2.01 3.67 1.02 3.34 0 3 C0 2.01 0 1.02 0 0 Z " fill="#374850" transform="translate(315,123)"/>
<path d="M0 0 C0.66 1.32 1.32 2.64 2 4 C1.01 4.33 0.02 4.66 -1 5 C-1 5.66 -1 6.32 -1 7 C-0.34 7.33 0.32 7.66 1 8 C0.01 9.485 0.01 9.485 -1 11 C-1.04125 11.763125 -1.0825 12.52625 -1.125 13.3125 C-2.5519371 17.69523539 -6.30417108 19.49040189 -10 22 C-11.33803283 22.99370314 -12.6727757 23.99190604 -14 25 C-14.12375 24.030625 -14.2475 23.06125 -14.375 22.0625 C-14.684375 20.5465625 -14.684375 20.5465625 -15 19 C-15.66 18.67 -16.32 18.34 -17 18 C-17 17.01 -17 16.02 -17 15 C-16.01 14.67 -15.02 14.34 -14 14 C-13.67 13.34 -13.34 12.68 -13 12 C-11.88625 11.79375 -10.7725 11.5875 -9.625 11.375 C-5.98707369 10.44015703 -5.98707369 10.44015703 -4.9765625 8.1640625 C-4.22842598 6.02176752 -4.22842598 6.02176752 -3.703125 3.875 C-3 2 -3 2 0 0 Z " fill="#1D3138" transform="translate(170,132)"/>
<path d="M0 0 C0.33 2.31 0.66 4.62 1 7 C0.40832031 7.08636719 -0.18335938 7.17273438 -0.79296875 7.26171875 C-6.45593314 8.26867327 -9.11072013 9.57054237 -13 14 C-14.64605826 15.03357147 -16.30963442 16.04060332 -18 17 C-18.66 17.66 -19.32 18.32 -20 19 C-19.67 19.66 -19.34 20.32 -19 21 C-19.474375 21.61875 -19.94875 22.2375 -20.4375 22.875 C-22.02417441 24.90705546 -22.02417441 24.90705546 -23 27 C-22.01 27.33 -21.02 27.66 -20 28 C-20.33 28.66 -20.66 29.32 -21 30 C-23.28515625 30.6328125 -23.28515625 30.6328125 -26.0625 31.125 C-26.98160156 31.29257813 -27.90070313 31.46015625 -28.84765625 31.6328125 C-29.55792969 31.75398438 -30.26820313 31.87515625 -31 32 C-25.95215313 22.87428468 -12.45279898 0 0 0 Z " fill="#456C7D" transform="translate(299,208)"/>
<path d="M0 0 C0.66 0.99 1.32 1.98 2 3 C1.34 3 0.68 3 0 3 C1.64677204 6.09587454 1.64677204 6.09587454 4 9 C6.59689671 9.25041448 6.59689671 9.25041448 9 9 C5.46653832 13.78413713 1.91812412 18.52214386 -2 23 C-2.33 23 -2.66 23 -3 23 C-3.08733513 19.91684615 -3.14050127 16.83401173 -3.1875 13.75 C-3.21263672 12.87730469 -3.23777344 12.00460937 -3.26367188 11.10546875 C-3.33834499 4.58401668 -3.33834499 4.58401668 -1.48828125 1.390625 C-0.99714844 0.93171875 -0.50601563 0.4728125 0 0 Z " fill="#172E39" transform="translate(256,313)"/>
<path d="M0 0 C-1.48554497 3.46969676 -3.45200393 5.67273821 -6.140625 8.30078125 C-6.96433594 9.11353516 -7.78804688 9.92628906 -8.63671875 10.76367188 C-9.49910156 11.60478516 -10.36148437 12.44589844 -11.25 13.3125 C-18.1209517 19.99901617 -18.1209517 19.99901617 -24.546875 27.10546875 C-25.35640625 28.06066406 -26.1659375 29.01585937 -27 30 C-27.33 30 -27.66 30 -28 30 C-27.8125 26.6875 -27.8125 26.6875 -27 23 C-24.5 21.375 -24.5 21.375 -22 20 C-21.11341534 17.40877257 -21.11341534 17.40877257 -21 15 C-20.01 15.33 -19.02 15.66 -18 16 C-17.67 15.34 -17.34 14.68 -17 14 C-15.35636866 13.27840576 -13.68949614 12.60648579 -12 12 C-12 11.01 -12 10.02 -12 9 C-10.01739574 7.31267723 -8.0167658 5.64633943 -6 4 C-5.67 3.01 -5.34 2.02 -5 1 C-3 0 -3 0 0 0 Z " fill="#324E58" transform="translate(302,252)"/>
<path d="M0 0 C4.62 0.66 9.24 1.32 14 2 C13.67 2.99 13.34 3.98 13 5 C13 4.34 13 3.68 13 3 C12.34 3 11.68 3 11 3 C10.67 4.32 10.34 5.64 10 7 C10.66 7.33 11.32 7.66 12 8 C12.99 7.67 13.98 7.34 15 7 C15.86355778 8.95421035 16.71559934 10.91351347 17.5625 12.875 C18.03816406 13.96554688 18.51382813 15.05609375 19.00390625 16.1796875 C19.33261719 17.11039063 19.66132813 18.04109375 20 19 C19.67 19.66 19.34 20.32 19 21 C17.7625 19.4840625 17.7625 19.4840625 16.5 17.9375 C14.14963345 15.18151464 11.69636283 12.78279515 8.9375 10.4375 C5.52278747 7.53401123 2.71629791 4.565141 0 1 C0 0.67 0 0.34 0 0 Z " fill="#508B9A" transform="translate(134,188)"/>
<path d="M0 0 C0.99 0 1.98 0 3 0 C3 5.61 3 11.22 3 17 C2.67 15.68 2.34 14.36 2 13 C1.62875 13.433125 1.2575 13.86625 0.875 14.3125 C-1.51281095 16.46152985 -4.1019568 17.64757984 -7 19 C-6.67422369 11.83292123 -3.34556372 6.23072876 0 0 Z " fill="#3A4951" transform="translate(117,191)"/>
<path d="M0 0 C0.99 0.33 1.98 0.66 3 1 C0.25 6.875 0.25 6.875 -2 8 C-2.99 8 -3.98 8 -5 8 C-7.66057656 9.2463436 -7.66057656 9.2463436 -10 11 C-10.33 11.99 -10.66 12.98 -11 14 C-11.66 14 -12.32 14 -13 14 C-13.33 14.66 -13.66 15.32 -14 16 C-16.39327706 19.21854501 -18.67573343 21.74424768 -22 24 C-21.14840054 16.52189221 -14.98196159 11.55196086 -9.5078125 6.8671875 C-6.41400001 4.44285575 -3.27045422 2.18030282 0 0 Z " fill="#13252D" transform="translate(283,320)"/>
<path d="M0 0 C1.65 0.33 3.3 0.66 5 1 C6 4 6 4 6 5 C7.65 5 9.3 5 11 5 C10.979375 5.94875 10.95875 6.8975 10.9375 7.875 C10.77448174 10.90666283 10.77448174 10.90666283 12 13 C6.72676192 13.68041782 2.60611289 11.24786337 -2 9 C-1.505 7.6078125 -1.505 7.6078125 -1 6.1875 C0.14967004 3.07970709 0.14967004 3.07970709 0 0 Z " fill="#192932" transform="translate(313,126)"/>
<path d="M0 0 C1.17539996 0.92652701 2.34010577 1.86663387 3.5 2.8125 C4.1496875 3.33457031 4.799375 3.85664063 5.46875 4.39453125 C7 6 7 6 7 9 C6.01 9.99 5.02 10.98 4 12 C1.03 11.01 -1.94 10.02 -5 9 C-5 8.01 -5 7.02 -5 6 C-4.34 6 -3.68 6 -3 6 C-2.87625 5.195625 -2.7525 4.39125 -2.625 3.5625 C-2.41875 2.716875 -2.2125 1.87125 -2 1 C-1.34 0.67 -0.68 0.34 0 0 Z " fill="#0D1D28" transform="translate(348,148)"/>
<path d="M0 0 C0.66 0.33 1.32 0.66 2 1 C0.95820214 4.2030431 -0.14940281 7.17343946 -2 10 C-5.75 11.0625 -5.75 11.0625 -9 11 C-9.33 11.99 -9.66 12.98 -10 14 C-10.7425 14.12375 -11.485 14.2475 -12.25 14.375 C-14.80141485 14.95486701 -16.7267573 15.73708739 -19 17 C-17.71937515 15.2925002 -16.38232443 13.62626404 -15 12 C-14.34 12 -13.68 12 -13 12 C-12.78601563 11.42765625 -12.57203125 10.8553125 -12.3515625 10.265625 C-10.53787984 7.22534771 -8.26712781 5.76776359 -5.375 3.75 C-4.37210938 3.04359375 -3.36921875 2.3371875 -2.3359375 1.609375 C-1.17964844 0.81273437 -1.17964844 0.81273437 0 0 Z " fill="#3C5055" transform="translate(166,133)"/>
<path d="M0 0 C0.99 0.33 1.98 0.66 3 1 C3.6875 3.0625 3.6875 3.0625 4 5 C2.9171875 5.556875 2.9171875 5.556875 1.8125 6.125 C-1.64260996 8.42840664 -3.55293453 10.6440245 -6 14 C-6 14.99 -6 15.98 -6 17 C-6.66 17 -7.32 17 -8 17 C-8 17.66 -8 18.32 -8 19 C-7.34 19.33 -6.68 19.66 -6 20 C-6 20.66 -6 21.32 -6 22 C-7.65 22.66 -9.3 23.32 -11 24 C-11.66 23.34 -12.32 22.68 -13 22 C-15.10820797 22.3185177 -15.10820797 22.3185177 -17 23 C-16.27039063 22.29746094 -15.54078125 21.59492188 -14.7890625 20.87109375 C-12.0460074 18.12513901 -9.7034404 15.17108796 -7.375 12.0625 C-6.61960937 11.06347656 -5.86421875 10.06445312 -5.0859375 9.03515625 C-3.07974999 6.11604072 -1.49932892 3.20397996 0 0 Z " fill="#2E4D5A" transform="translate(364,263)"/>
<path d="M0 0 C0.66 0.66 1.32 1.32 2 2 C1.67 2.99 1.34 3.98 1 5 C1.66 5.33 2.32 5.66 3 6 C5 9 5 9 4.625 12.1875 C4.41875 13.115625 4.2125 14.04375 4 15 C0.91245575 13.64416535 -1.04707629 12.17282591 -3.25 9.625 C-3.77078125 9.03976562 -4.2915625 8.45453125 -4.828125 7.8515625 C-6 6 -6 6 -6 2 C-4.02 2 -2.04 2 0 2 C0 1.34 0 0.68 0 0 Z " fill="#1C2B33" transform="translate(147,343)"/>
<path d="M0 0 C-1.40844718 3.21524305 -3.10344786 5.32183868 -5.625 7.75 C-6.57246094 8.67039062 -6.57246094 8.67039062 -7.5390625 9.609375 C-8.02117187 10.06828125 -8.50328125 10.5271875 -9 11 C-11.79233071 8.44722581 -12.48967606 6.77639718 -13 3 C-12.34 3 -11.68 3 -11 3 C-11 2.34 -11 1.68 -11 1 C-7.32589215 -0.17571451 -3.83070817 -0.07366746 0 0 Z " fill="#192F3A" transform="translate(241,108)"/>
<path d="M0 0 C0.66 1.32 1.32 2.64 2 4 C2.66 3.67 3.32 3.34 4 3 C4.99 4.98 5.98 6.96 7 9 C7.99 9 8.98 9 10 9 C8.50902342 12.7952131 6.24299151 14.61042731 3 17 C-0.50270401 13.49729599 -0.05580639 9.41988475 -0.0625 4.6875 C-0.04653226 3.1249427 -0.02730408 1.56240032 0 0 Z " fill="#5B8797" transform="translate(303,232)"/>
<path d="M0 0 C0.66 0.33 1.32 0.66 2 1 C-4.27 7.27 -10.54 13.54 -17 20 C-17.66 19.34 -18.32 18.68 -19 18 C-18.34 18 -17.68 18 -17 18 C-16.896875 17.401875 -16.79375 16.80375 -16.6875 16.1875 C-15.87621677 13.60614427 -15.11887297 12.66482877 -13 11 C-10.3125 9.8125 -10.3125 9.8125 -8 9 C-8.33 6.69 -8.66 4.38 -9 2 C-6.83125748 2.50603992 -5.00032373 2.99983813 -3 4 C-3 3.34 -3 2.68 -3 2 C-2.01 1.34 -1.02 0.68 0 0 Z " fill="#4D747E" transform="translate(338,214)"/>
<path d="M0 0 C0.33 0 0.66 0 1 0 C1 13.53 1 27.06 1 41 C0.67 41 0.34 41 0 41 C0 36.38 0 31.76 0 27 C-0.66 27 -1.32 27 -2 27 C-1.67 26.01 -1.34 25.02 -1 24 C-0.91978001 22.59175107 -0.89234023 21.18002769 -0.90234375 19.76953125 C-0.90556641 18.96708984 -0.90878906 18.16464844 -0.91210938 17.33789062 C-0.92467773 16.08782227 -0.92467773 16.08782227 -0.9375 14.8125 C-0.94201172 13.96751953 -0.94652344 13.12253906 -0.95117188 12.25195312 C-0.96294597 10.16793845 -0.9808811 8.08396023 -1 6 C-3.31 7.98 -5.62 9.96 -8 12 C-8.66 11.67 -9.32 11.34 -10 11 C-8.35742342 9.16365304 -6.71117305 7.3308593 -5.0625 5.5 C-4.59392578 4.97535156 -4.12535156 4.45070313 -3.64257812 3.91015625 C-2.44904592 2.5878256 -1.22665821 1.29166061 0 0 Z " fill="#73ADB6" transform="translate(244,119)"/>
<path d="M0 0 C8.44646925 6.15034169 8.44646925 6.15034169 12 10 C11.67 10.66 11.34 11.32 11 12 C8.69 9.69 6.38 7.38 4 5 C3.01 5.33 2.02 5.66 1 6 C1 7.65 1 9.3 1 11 C0.01 11.33 -0.98 11.66 -2 12 C-2.99 12.495 -2.99 12.495 -4 13 C-4 12.34 -4 11.68 -4 11 C-4.66 10.67 -5.32 10.34 -6 10 C-5.38003922 8.70590711 -4.75383647 7.41480327 -4.125 6.125 C-3.77695312 5.40570313 -3.42890625 4.68640625 -3.0703125 3.9453125 C-2 2 -2 2 0 0 Z " fill="#46555D" transform="translate(345,144)"/>
<path d="M0 0 C0.66 0.33 1.32 0.66 2 1 C0.68 2.65 -0.64 4.3 -2 6 C-0.68 7.32 0.64 8.64 2 10 C-0.36292656 12.52588702 -1.66462511 13.88820837 -5 15 C-5.144375 14.21625 -5.28875 13.4325 -5.4375 12.625 C-5.87798925 10.03578982 -5.87798925 10.03578982 -7 8 C-8.32 8.33 -9.64 8.66 -11 9 C-9.948125 8.1646875 -9.948125 8.1646875 -8.875 7.3125 C-5.88655739 4.90875268 -2.94059762 2.46189568 0 0 Z " fill="#EEF4F5" transform="translate(335,284)"/>
<path d="M0 0 C0.66 1.32 1.32 2.64 2 4 C1.01 4.33 0.02 4.66 -1 5 C-1 5.66 -1 6.32 -1 7 C-0.34 7.33 0.32 7.66 1 8 C-0.32 10.31 -1.64 12.62 -3 15 C-3.33 14.34 -3.66 13.68 -4 13 C-5.32 13 -6.64 13 -8 13 C-8 13.66 -8 14.32 -8 15 C-8.66 15 -9.32 15 -10 15 C-9.6875 13.0625 -9.6875 13.0625 -9 11 C-8.01 10.67 -7.02 10.34 -6 10 C-5.09019989 8.19649042 -5.09019989 8.19649042 -4.5 6.0625 C-3.43824907 2.58020975 -3.23663534 2.1577569 0 0 Z " fill="#091E26" transform="translate(170,132)"/>
<path d="M0 0 C1.20628008 2.33214148 2.1654738 4.49642139 3 7 C0.36 8.98 -2.28 10.96 -5 13 C-5 12.34 -5 11.68 -5 11 C-7.475 12.485 -7.475 12.485 -10 14 C-8.51872621 10.74715253 -6.65319465 8.11102873 -4.4375 5.3125 C-3.81746094 4.52488281 -3.19742188 3.73726562 -2.55859375 2.92578125 C-1 1 -1 1 0 0 Z " fill="#2B393D" transform="translate(142,154)"/>
<path d="M0 0 C4.94539433 3.97570917 8.50593947 7.70596889 12 13 C9.69 12.67 7.38 12.34 5 12 C4.67 13.65 4.34 15.3 4 17 C3.67 17 3.34 17 3 17 C3 13.66666667 3 10.33333333 3 7 C2.34 6.34 1.68 5.68 1 5 C1 6.98 1 8.96 1 11 C0.67 11 0.34 11 0 11 C0 7.37 0 3.74 0 0 Z " fill="#1C4854" transform="translate(129,196)"/>
<path d="M0 0 C3.45101522 4.24740335 6.73279209 8.61105071 10 13 C8 12 6 11 4 10 C4 9.34 4 8.68 4 8 C2.68 7.67 1.36 7.34 0 7 C-0.33 9.64 -0.66 12.28 -1 15 C-1.99 15 -2.98 15 -4 15 C-3.50341703 9.33895411 -2.45489316 5.12325529 0 0 Z " fill="#194253" transform="translate(210,169)"/>
<path d="M0 0 C-0.99 0.66 -1.98 1.32 -3 2 C-3.33 2.99 -3.66 3.98 -4 5 C-4.969375 5.12375 -5.93875 5.2475 -6.9375 5.375 C-8.4534375 5.684375 -8.4534375 5.684375 -10 6 C-10.33 6.66 -10.66 7.32 -11 8 C-13.32156597 8.40729228 -15.6568787 8.74438677 -18 9 C-18 8.01 -18 7.02 -18 6 C-3.26213592 -1.63106796 -3.26213592 -1.63106796 0 0 Z " fill="#192D35" transform="translate(305,312)"/>
<path d="M0 0 C-3.42166518 4.70478962 -7.57905197 8.27653164 -12 12 C-12.66 11.01 -13.32 10.02 -14 9 C-13.34 8.443125 -12.68 7.88625 -12 7.3125 C-9.74507789 5.15937692 -9.74507789 5.15937692 -9.75 2.25 C-9.8325 1.5075 -9.915 0.765 -10 0 C-6.33694766 -0.74926071 -3.57644848 -1.2380014 0 0 Z " fill="#4B8892" transform="translate(365,189)"/>
<path d="M0 0 C0.33 0 0.66 0 1 0 C1.33 11.22 1.66 22.44 2 34 C2.99 34.33 3.98 34.66 5 35 C4.01 37.31 3.02 39.62 2 42 C1.34 42 0.68 42 0 42 C0 28.14 0 14.28 0 0 Z " fill="#425057" transform="translate(253,206)"/>
<path d="M0 0 C2.79913972 0.36456787 3.87954649 0.87705263 5.88671875 2.92578125 C6.48097656 3.71339844 7.07523437 4.50101563 7.6875 5.3125 C8.59048828 6.48232422 8.59048828 6.48232422 9.51171875 7.67578125 C10.91104355 9.86107851 11.56516545 11.46636402 12 14 C11.34 14 10.68 14 10 14 C10 13.34 10 12.68 10 12 C8.68 12 7.36 12 6 12 C5.01 11.34 4.02 10.68 3 10 C3.33 9.34 3.66 8.68 4 8 C3.67 7.67 3.34 7.34 3 7 C2.67 6.01 2.34 5.02 2 4 C0.35 4 -1.3 4 -3 4 C-2.01 2.68 -1.02 1.36 0 0 Z " fill="#4E7D89" transform="translate(270,140)"/>
<path d="M0 0 C0.66 0.33 1.32 0.66 2 1 C1.21681311 4.91593446 -0.39179858 8.36406635 -2 12 C-1.34 12.33 -0.68 12.66 0 13 C-1.75 18.75 -1.75 18.75 -4 21 C-4.495 22.0209375 -4.495 22.0209375 -5 23.0625 C-6 25 -6 25 -8 26 C-7.82984375 25.45214844 -7.6596875 24.90429688 -7.484375 24.33984375 C-5.61854572 18.2362001 -3.93828082 12.09866658 -2.35839844 5.91577148 C-1.10775462 1.10775462 -1.10775462 1.10775462 0 0 Z " fill="#7A929B" transform="translate(376,231)"/>
<path d="M0 0 C3.4375 0.8125 3.4375 0.8125 7 2 C7.33 2.99 7.66 3.98 8 5 C8.66 5 9.32 5 10 5 C10.53012738 6.28788008 11.0488329 7.58046678 11.5625 8.875 C11.85253906 9.59429687 12.14257812 10.31359375 12.44140625 11.0546875 C13 13 13 13 12 15 C10.66072279 13.54712339 9.32873153 12.08752741 8 10.625 C7.2575 9.81289062 6.515 9.00078125 5.75 8.1640625 C4 6 4 6 4 4 C3.34 4 2.68 4 2 4 C2 3.34 2 2.68 2 2 C1.34 2 0.68 2 0 2 C0 1.34 0 0.68 0 0 Z " fill="#435158" transform="translate(343,157)"/>
<path d="M0 0 C2.125 0.375 2.125 0.375 4 1 C3.2884375 1.928125 3.2884375 1.928125 2.5625 2.875 C0.97582559 4.90705546 0.97582559 4.90705546 0 7 C0.99 7.33 1.98 7.66 3 8 C2.67 8.66 2.34 9.32 2 10 C-0.28515625 10.6328125 -0.28515625 10.6328125 -3.0625 11.125 C-3.98160156 11.29257813 -4.90070313 11.46015625 -5.84765625 11.6328125 C-6.91306641 11.81457031 -6.91306641 11.81457031 -8 12 C-7.04532436 10.37284844 -6.08613152 8.74834654 -5.125 7.125 C-4.59132813 6.22007812 -4.05765625 5.31515625 -3.5078125 4.3828125 C-2 2 -2 2 0 0 Z " fill="#345E70" transform="translate(276,228)"/>
<path d="M0 0 C0.33 0 0.66 0 1 0 C1.11613204 3.10385211 1.18722029 6.20714662 1.25 9.3125 C1.30027344 10.63411133 1.30027344 10.63411133 1.3515625 11.98242188 C1.45112665 18.52876499 1.45112665 18.52876499 -1.015625 21.10546875 C-1.67046875 21.40066406 -2.3253125 21.69585937 -3 22 C-3.33608711 13.94635715 -3.0517291 7.50216736 0 0 Z " fill="#547283" transform="translate(257,280)"/>
<path d="M0 0 C0.66 0 1.32 0 2 0 C2.33 0.33 2.66 0.66 3 1 C5.05396726 0.59070014 5.05396726 0.59070014 7 0 C5.79618552 2.49361571 4.54571278 4.68143083 3 7 C2.34 7 1.68 7 1 7 C0.34 8.98 -0.32 10.96 -1 13 C-1.33 12.34 -1.66 11.68 -2 11 C-2.66 11 -3.32 11 -4 11 C-4 10.01 -4 9.02 -4 8 C-3.34 8 -2.68 8 -2 8 C-1.855625 6.865625 -1.71125 5.73125 -1.5625 4.5625 C-1 1 -1 1 0 0 Z " fill="#38484E" transform="translate(141,165)"/>
<path d="M0 0 C9.59453303 6.15034169 9.59453303 6.15034169 13 10 C12.34 10 11.68 10 11 10 C11 10.66 11 11.32 11 12 C9.35 12.66 7.7 13.32 6 14 C6 11.69 6 9.38 6 7 C5.01 7 4.02 7 3 7 C2.34 6.34 1.68 5.68 1 5 C0.01 5.495 0.01 5.495 -1 6 C-0.67 4.02 -0.34 2.04 0 0 Z " fill="#536F7B" transform="translate(154,289)"/>
<path d="M0 0 C1.59712091 4.79136272 1.58050244 9.25849269 0 14 C-0.33 14.66 -0.66 15.32 -1 16 C-3.52480693 13.47519307 -3.55738633 11.86176966 -4.125 8.375 C-4.29257812 7.37210938 -4.46015625 6.36921875 -4.6328125 5.3359375 C-4.75398438 4.56507813 -4.87515625 3.79421875 -5 3 C-3.35 2.01 -1.7 1.02 0 0 Z " fill="#6294A3" transform="translate(303,204)"/>
<path d="M0 0 C3 1 3 1 4.421875 3.65234375 C4.86015625 4.73644531 5.2984375 5.82054687 5.75 6.9375 C6.19859375 8.01902344 6.6471875 9.10054687 7.109375 10.21484375 C8 13 8 13 7 15 C6.67 13.68 6.34 12.36 6 11 C4.68 11 3.36 11 2 11 C2 10.01 2 9.02 2 8 C1.34 8 0.68 8 0 8 C-0.33 9.32 -0.66 10.64 -1 12 C-1.14285714 3.42857143 -1.14285714 3.42857143 0 0 Z " fill="#525F68" transform="translate(380,190)"/>
<path d="M0 0 C3.37503669 1.1858237 5.64722731 2.27573689 8 5 C7.34 7.31 6.68 9.62 6 12 C2.92307943 9.23077149 1.22199993 6.97149976 0 3 C0 2.01 0 1.02 0 0 Z " fill="#0D1A21" transform="translate(138,250)"/>
<path d="M0 0 C4.37859255 0.50522222 6.81651224 3.17827222 10 6 C8.375 7.125 8.375 7.125 6 8 C2.8125 7.375 2.8125 7.375 0 6 C-0.9375 4 -0.9375 4 -1 2 C-0.67 1.34 -0.34 0.68 0 0 Z " fill="#234652" transform="translate(145,216)"/>
<path d="M0 0 C2.3125 -0.25 2.3125 -0.25 5 0 C6.8125 2 6.8125 2 8 4 C5.03 6.475 5.03 6.475 2 9 C1.34 8.67 0.68 8.34 0 8 C0 7.34 0 6.68 0 6 C-0.66 5.67 -1.32 5.34 -2 5 C-1.34 4.01 -0.68 3.02 0 2 C0 1.34 0 0.68 0 0 Z " fill="#1B2C36" transform="translate(353,156)"/>
<path d="M0 0 C0 3.59857954 -0.95830515 5.09451118 -3 8 C-3.66 8 -4.32 8 -5 8 C-5.28875 8.5775 -5.5775 9.155 -5.875 9.75 C-6.91666667 11.83333333 -7.95833333 13.91666667 -9 16 C-9.66 16 -10.32 16 -11 16 C-10.62310484 10.53101059 -8.88820181 8.32565739 -4.9375 4.625 C-4.01839844 3.75101563 -3.09929687 2.87703125 -2.15234375 1.9765625 C-1.44207031 1.32429687 -0.73179687 0.67203125 0 0 Z " fill="#3D636C" transform="translate(321,246)"/>
<path d="M0 0 C1.2077558 3.62326739 0.54311128 4.64146369 -1 8 C-1.99 8 -2.98 8 -4 8 C-4.99 8.495 -4.99 8.495 -6 9 C-7.67654729 8.72057545 -9.34608154 8.39171753 -11 8 C-11 7.34 -11 6.68 -11 6 C-10.113125 5.566875 -9.22625 5.13375 -8.3125 4.6875 C-5.45570545 3.23215183 -2.72603137 1.68372526 0 0 Z " fill="#0C2C3D" transform="translate(360,248)"/>
<path d="M0 0 C3.53586014 3.17320782 5.58578031 5.16743695 6 10 C4.02 10 2.04 10 0 10 C-0.66 7.69 -1.32 5.38 -2 3 C-1.01 3 -0.02 3 1 3 C0.67 2.01 0.34 1.02 0 0 Z " fill="#3B4B54" transform="translate(366,168)"/>
<path d="M0 0 C0.33 0 0.66 0 1 0 C1.19551338 1.60320974 1.38111983 3.20762986 1.5625 4.8125 C1.66691406 5.70582031 1.77132812 6.59914062 1.87890625 7.51953125 C2 10 2 10 1 13 C3.62901288 11.47793991 5.84365964 10.15634036 8 8 C8.66 8.66 9.32 9.32 10 10 C9.01 10.33 8.02 10.66 7 11 C6.71125 11.639375 6.4225 12.27875 6.125 12.9375 C5 15 5 15 0 17 C0 11.39 0 5.78 0 0 Z " fill="#274855" transform="translate(254,188)"/>
<path d="M0 0 C1.16959987 0.97566112 2.33561177 1.955625 3.5 2.9375 C4.1496875 3.48277344 4.799375 4.02804687 5.46875 4.58984375 C6.22671875 5.28787109 6.22671875 5.28787109 7 6 C7 6.33 7 6.66 7 7 C2.83861737 7.08159574 -0.9472484 6.98248524 -5 6 C-2.25 1.125 -2.25 1.125 0 0 Z " fill="#2E5261" transform="translate(185,256)"/>
<path d="M0 0 C0.33 0.66 0.66 1.32 1 2 C0.44140625 3.671875 0.44140625 3.671875 -0.4375 5.75 C-2.70495928 12.04735283 -2.25361104 18.39672007 -2 25 C-2.66 25 -3.32 25 -4 25 C-4.02895976 21.87501937 -4.04678483 18.7500731 -4.0625 15.625 C-4.07087891 14.73554688 -4.07925781 13.84609375 -4.08789062 12.9296875 C-4.09111328 12.07890625 -4.09433594 11.228125 -4.09765625 10.3515625 C-4.10289307 9.56604004 -4.10812988 8.78051758 -4.11352539 7.97119141 C-4 6 -4 6 -3 4 C-2.34 4 -1.68 4 -1 4 C-0.67 2.68 -0.34 1.36 0 0 Z " fill="#CDDBDF" transform="translate(257,278)"/>
<path d="M0 0 C0.99 0.33 1.98 0.66 3 1 C3.6875 3.0625 3.6875 3.0625 4 5 C3.29875 5.33 2.5975 5.66 1.875 6 C-2.00652871 8.70019388 -4.33376242 12.14265972 -7 16 C-7.99 15.67 -8.98 15.34 -10 15 C-9.52949219 14.41992188 -9.05898438 13.83984375 -8.57421875 13.2421875 C-5.17861407 8.98186362 -2.18021001 5.00165825 0 0 Z " fill="#486571" transform="translate(364,263)"/>
<path d="M0 0 C0 0.99 0 1.98 0 3 C-0.9075 2.773125 -1.815 2.54625 -2.75 2.3125 C-3.8225 2.209375 -4.895 2.10625 -6 2 C-6.598125 2.495 -7.19625 2.99 -7.8125 3.5 C-11.33822811 5.91764213 -14.9509489 4.71810094 -19 4 C-15.91450652 2.33354243 -12.87324675 1.26238404 -9.5 0.3125 C-8.5615625 0.04050781 -7.623125 -0.23148438 -6.65625 -0.51171875 C-3.99233534 -1.00140894 -2.52388628 -0.88693174 0 0 Z " fill="#66959E" transform="translate(339,194)"/>
<path d="M0 0 C0.66 0 1.32 0 2 0 C0.2703384 4.20953787 -2.68206745 7.35143576 -5.625 10.75 C-6.140625 11.35199219 -6.65625 11.95398438 -7.1875 12.57421875 C-8.45469135 14.05260866 -9.72685775 15.52673171 -11 17 C-11.66 16.34 -12.32 15.68 -13 15 C-12.39671875 14.33613281 -11.7934375 13.67226562 -11.171875 12.98828125 C-10.37265625 12.10527344 -9.5734375 11.22226563 -8.75 10.3125 C-7.96109375 9.44238281 -7.1721875 8.57226562 -6.359375 7.67578125 C-4.7870393 5.89258596 -3.27488254 4.05447813 -1.828125 2.16796875 C-0.92320312 1.09482422 -0.92320312 1.09482422 0 0 Z " fill="#E1F9FA" transform="translate(242,118)"/>
<path d="M0 0 C0.99 1.32 1.98 2.64 3 4 C2.01 4.99 1.02 5.98 0 7 C0.99 7.33 1.98 7.66 3 8 C2.67 10.31 2.34 12.62 2 15 C2.66 15.33 3.32 15.66 4 16 C3.34 16.99 2.68 17.98 2 19 C-0.24138744 15.3680375 -0.42138961 12.02227917 -0.6875 7.8125 C-0.77386719 6.56082031 -0.86023438 5.30914062 -0.94921875 4.01953125 C-0.96597656 3.02308594 -0.98273438 2.02664063 -1 1 C-0.67 0.67 -0.34 0.34 0 0 Z " fill="#65848F" transform="translate(116,264)"/>
<path d="M0 0 C1.34444159 0.90029571 2.67531438 1.82088022 4 2.75 C5.11375 3.51570312 5.11375 3.51570312 6.25 4.296875 C6.8275 4.85890625 7.405 5.4209375 8 6 C8 7.32 8 8.64 8 10 C6.35 9.67 4.7 9.34 3 9 C3 8.34 3 7.68 3 7 C2.34 7 1.68 7 1 7 C0.67 4.69 0.34 2.38 0 0 Z " fill="#26414E" transform="translate(208,213)"/>
<path d="M0 0 C2.625 -0.1875 2.625 -0.1875 5 0 C4.25 5.75 4.25 5.75 2 8 C-0.125 7.625 -0.125 7.625 -2 7 C-2 3 -2 3 0 0 Z " fill="#1C2D3C" transform="translate(362,334)"/>
<path d="M0 0 C1.32 0.33 2.64 0.66 4 1 C4 4 4 4 2.6875 5.38671875 C1.125 6.59114583 -0.4375 7.79557292 -2 9 C-3 8 -3 8 -3.0625 5.4375 C-3.041875 4.633125 -3.02125 3.82875 -3 3 C-2.01 2.67 -1.02 2.34 0 2 C0 1.34 0 0.68 0 0 Z " fill="#325561" transform="translate(260,289)"/>
<path d="M0 0 C0.66 0 1.32 0 2 0 C3.5078125 1.96875 3.5078125 1.96875 5.125 4.5 C5.66382813 5.3353125 6.20265625 6.170625 6.7578125 7.03125 C7.16773438 7.6809375 7.57765625 8.330625 8 9 C4.375 12 4.375 12 1 12 C1 11.34 1 10.68 1 10 C1.99 9.67 2.98 9.34 4 9 C3.154375 8.071875 2.30875 7.14375 1.4375 6.1875 C-0.00390625 4.60546875 -0.00390625 4.60546875 -1 3 C-0.67 2.01 -0.34 1.02 0 0 Z " fill="#678691" transform="translate(135,268)"/>
<path d="M0 0 C2 1 4 2 6 3 C7.32 2.67 8.64 2.34 10 2 C10.33 4.97 10.66 7.94 11 11 C6.84641746 7.56530675 3.21124658 4.36729534 0 0 Z " fill="#2B4350" transform="translate(197,255)"/>
<path d="M0 0 C3.3 1.65 6.6 3.3 10 5 C7.1709277 7.8290723 6.61855575 8.37611108 3 9 C3 7.33333333 3 5.66666667 3 4 C2.01 3.67 1.02 3.34 0 3 C0 2.01 0 1.02 0 0 Z " fill="#2D3E48" transform="translate(315,123)"/>
<path d="M0 0 C0.33 0.99 0.66 1.98 1 3 C0.29875 3.680625 -0.4025 4.36125 -1.125 5.0625 C-3.24686617 7.16039029 -5.12607069 9.36693469 -7 11.6875 C-9.38852803 14.53393237 -11.32026795 16.02595328 -15 17 C-11.34958384 12.63730751 -7.61135582 8.52626192 -3.515625 4.578125 C-1.78603688 2.87001498 -1.78603688 2.87001498 0 0 Z " fill="#D9E9ED" transform="translate(306,248)"/>
<path d="M0 0 C0.99 0.33 1.98 0.66 3 1 C3.33 2.65 3.66 4.3 4 6 C3.34 6 2.68 6 2 6 C2.02320313 6.62648437 2.04640625 7.25296875 2.0703125 7.8984375 C2.08835938 8.71570313 2.10640625 9.53296875 2.125 10.375 C2.14820313 11.18710938 2.17140625 11.99921875 2.1953125 12.8359375 C2 15 2 15 0 17 C0 11.39 0 5.78 0 0 Z " fill="#29444F" transform="translate(130,201)"/>
<path d="M0 0 C3.3125 0.125 3.3125 0.125 7 1 C8.80842924 3.74181207 10 5.67867293 10 9 C8.0625 8.1875 8.0625 8.1875 6 7 C5.67 6.01 5.34 5.02 5 4 C3.68352881 3.30062468 2.34977849 2.63270867 1 2 C0.67 1.34 0.34 0.68 0 0 Z " fill="#5F95A8" transform="translate(232,194)"/>
<path d="M0 0 C0.66 0 1.32 0 2 0 C2.66 0.66 3.32 1.32 4 2 C4.99 2 5.98 2 7 2 C3.79239749 5.80635497 0.59253891 9.54563567 -3 13 C-3.33 12.34 -3.66 11.68 -4 11 C-3.34 10.484375 -2.68 9.96875 -2 9.4375 C0.65637543 6.20004245 0.31342132 4.07447719 0 0 Z " fill="#2F5465" transform="translate(272,180)"/>
<path d="M0 0 C0.66 0.33 1.32 0.66 2 1 C2 2.65 2 4.3 2 6 C1.67 5.34 1.34 4.68 1 4 C0.34 4 -0.32 4 -1 4 C-1 4.66 -1 5.32 -1 6 C-2.98 6.33 -4.96 6.66 -7 7 C-7 6.01 -7 5.02 -7 4 C-1.7265625 0.77734375 -1.7265625 0.77734375 0 0 Z " fill="#1D333F" transform="translate(333,297)"/>
<path d="M0 0 C0.99 0.66 1.98 1.32 3 2 C3.5 4.5 3.5 4.5 4 7 C4.99 7.66 5.98 8.32 7 9 C6.67 9.99 6.34 10.98 6 12 C4.49403892 10.54782324 2.99537896 9.08807139 1.5 7.625 C0.6646875 6.81289062 -0.170625 6.00078125 -1.03125 5.1640625 C-3 3 -3 3 -3 1 C-2.01 0.67 -1.02 0.34 0 0 Z " fill="#406470" transform="translate(180,232)"/>
<path d="M0 0 C1.32 0.66 2.64 1.32 4 2 C3.34 3.98 2.68 5.96 2 8 C0.824375 7.9690625 0.824375 7.9690625 -0.375 7.9375 C-2.98114961 7.81315937 -2.98114961 7.81315937 -5 9 C-3.7508258 5.54074837 -2.32472205 2.85306797 0 0 Z " fill="#3F4E53" transform="translate(131,168)"/>
<path d="M0 0 C2.97 0.99 5.94 1.98 9 3 C9 3.66 9 4.32 9 5 C6.50935112 5.68707555 4.62113708 6 2 6 C1.01 5.34 0.02 4.68 -1 4 C-0.67 2.68 -0.34 1.36 0 0 Z " fill="#3C5A65" transform="translate(178,305)"/>
<path d="M0 0 C0.33 0 0.66 0 1 0 C1 9.57 1 19.14 1 29 C0.01 28.67 -0.98 28.34 -2 28 C-1.505 26.515 -1.505 26.515 -1 25 C-0.85060226 23.08234406 -0.75189717 21.16053478 -0.68359375 19.23828125 C-0.64169922 18.12001953 -0.59980469 17.00175781 -0.55664062 15.84960938 C-0.51732422 14.68236328 -0.47800781 13.51511719 -0.4375 12.3125 C-0.39431641 11.13365234 -0.35113281 9.95480469 -0.30664062 8.74023438 C-0.20048824 5.82694117 -0.09843758 2.91356243 0 0 Z " fill="#538F9F" transform="translate(244,178)"/>
<path d="M0 0 C1.485 0.99 1.485 0.99 3 2 C5.15274948 1.69159401 5.15274948 1.69159401 7 1 C7.33 2.32 7.66 3.64 8 5 C5.64561267 6.42944945 4.51967567 7.08661261 1.75 6.625 C1.1725 6.41875 0.595 6.2125 0 6 C-1.125 2.25 -1.125 2.25 0 0 Z " fill="#0F1E27" transform="translate(246,360)"/>
<path d="M0 0 C1.4606285 2.64738916 2 3.89448334 2 7 C2.99 7 3.98 7 5 7 C5.25 14.625 5.25 14.625 3 18 C2.87882813 17.35933594 2.75765625 16.71867187 2.6328125 16.05859375 C1.64320773 10.95071067 0.51489049 5.97749731 -1 1 C-0.67 0.67 -0.34 0.34 0 0 Z " fill="#B1BABC" transform="translate(246,251)"/>
<path d="M0 0 C0.66 0.99 1.32 1.98 2 3 C-1.20336822 5.83374881 -3.78087253 6.5205537 -8 7 C-8 6.01 -8 5.02 -8 4 C-7.34 3.67 -6.68 3.34 -6 3 C-5.34 3.33 -4.68 3.66 -4 4 C-4 3.34 -4 2.68 -4 2 C-2.68 1.34 -1.36 0.68 0 0 Z " fill="#3D6A7A" transform="translate(354,248)"/>
<path d="M0 0 C4.67692308 1.47692308 4.67692308 1.47692308 6.3125 4.125 C6.539375 4.74375 6.76625 5.3625 7 6 C6.01 6.66 5.02 7.32 4 8 C2.68 7.34 1.36 6.68 0 6 C0 4.02 0 2.04 0 0 Z " fill="#1E3A45" transform="translate(200,208)"/>
<path d="M0 0 C0.66 0.66 1.32 1.32 2 2 C-0.10148204 5.98175544 -2.36905358 8.35039045 -6 11 C-5.55530671 5.96014269 -3.28656638 3.62365012 0 0 Z " fill="#1D2C33" transform="translate(267,333)"/>
<path d="M0 0 C0.66 0 1.32 0 2 0 C3.32 2.64 4.64 5.28 6 8 C5.34 8.66 4.68 9.32 4 10 C4 9.34 4 8.68 4 8 C3.01 8 2.02 8 1 8 C-0.42944945 5.64561267 -1.08661261 4.51967567 -0.625 1.75 C-0.41875 1.1725 -0.2125 0.595 0 0 Z " fill="#041B24" transform="translate(131,318)"/>
<path d="M0 0 C0.66 0 1.32 0 2 0 C2.33 2.31 2.66 4.62 3 7 C0.36 7.33 -2.28 7.66 -5 8 C-4 5 -4 5 -1 3 C-0.67 2.01 -0.34 1.02 0 0 Z " fill="#286680" transform="translate(297,208)"/>
<path d="M0 0 C1.67588141 2.51382212 2.94030311 4.82947288 4.1875 7.5625 C4.55230469 8.34753906 4.91710937 9.13257813 5.29296875 9.94140625 C5.52628906 10.62074219 5.75960937 11.30007812 6 12 C5.67 12.66 5.34 13.32 5 14 C-1.70387244 5.738041 -1.70387244 5.738041 -2 1 C-1.34 0.67 -0.68 0.34 0 0 Z " fill="#568691" transform="translate(148,195)"/>
<path d="M0 0 C1.9375 0.6875 1.9375 0.6875 3.9375 1.6875 C3.6075 2.3475 3.2775 3.0075 2.9375 3.6875 C2.36515625 3.46191406 1.7928125 3.23632812 1.203125 3.00390625 C-1.13718699 2.44257721 -1.13718699 2.44257721 -3.203125 3.90234375 C-4.24726563 4.75505859 -4.24726563 4.75505859 -5.3125 5.625 C-6.01890625 6.19089844 -6.7253125 6.75679688 -7.453125 7.33984375 C-8.24976563 8.00693359 -8.24976563 8.00693359 -9.0625 8.6875 C-9.3925 8.0275 -9.7225 7.3675 -10.0625 6.6875 C-3.09446664 -0.46885858 -3.09446664 -0.46885858 0 0 Z " fill="#E7ECED" transform="translate(250.0625,100.3125)"/>
<path d="M0 0 C2 3 2 3 1.75 5.8125 C1.00997553 8.95760401 0.08628408 11.95840457 -1 15 C-1.66 14.67 -2.32 14.34 -3 14 C-2.48594831 9.03083364 -1.76615118 4.70973649 0 0 Z " fill="#314855" transform="translate(209,170)"/>
<path d="M0 0 C0.99 0.66 1.98 1.32 3 2 C0.69 4.31 -1.62 6.62 -4 9 C-4.66 7.68 -5.32 6.36 -6 5 C-5.67 4.34 -5.34 3.68 -5 3 C-2.4375 2.375 -2.4375 2.375 0 2 C0 1.34 0 0.68 0 0 Z " fill="#495960" transform="translate(153,156)"/>
<path d="M0 0 C0.66 0.33 1.32 0.66 2 1 C-0.97 4.96 -0.97 4.96 -4 9 C-4.99 8.67 -5.98 8.34 -7 8 C-9.14255793 8.38932856 -9.14255793 8.38932856 -11 9 C-9.948125 8.1646875 -9.948125 8.1646875 -8.875 7.3125 C-5.88655739 4.90875268 -2.94059762 2.46189568 0 0 Z " fill="#E0E9EB" transform="translate(335,284)"/>
<path d="M0 0 C2.375 0.3125 2.375 0.3125 5 1 C5.66 1.99 6.32 2.98 7 4 C4.625 5.0625 4.625 5.0625 2 6 C1.34 5.67 0.68 5.34 0 5 C-0.33 5.66 -0.66 6.32 -1 7 C-0.67 4.69 -0.34 2.38 0 0 Z " fill="#203A46" transform="translate(217,225)"/>
<path d="M0 0 C0.74609375 1.640625 0.74609375 1.640625 1 4 C-0.65234375 6.796875 -0.65234375 6.796875 -2.9375 9.75 C-4.06478516 11.22726562 -4.06478516 11.22726562 -5.21484375 12.734375 C-5.80394531 13.48203125 -6.39304687 14.2296875 -7 15 C-7.33 14.34 -7.66 13.68 -8 13 C-6.75506252 10.71025684 -5.47358472 8.55809966 -4.0625 6.375 C-3.67642578 5.76398438 -3.29035156 5.15296875 -2.89257812 4.5234375 C-1.93553674 3.0110758 -0.96867189 1.50493883 0 0 Z " fill="#0B232D" transform="translate(368,314)"/>
<path d="M0 0 C0.33 0 0.66 0 1 0 C1.04898438 0.91523438 1.09796875 1.83046875 1.1484375 2.7734375 C1.22320312 3.96195312 1.29796875 5.15046875 1.375 6.375 C1.44460937 7.55835938 1.51421875 8.74171875 1.5859375 9.9609375 C1.70217346 13.10562319 1.70217346 13.10562319 4 15 C2.68 16.32 1.36 17.64 0 19 C0 12.73 0 6.46 0 0 Z " fill="#2E424B" transform="translate(253,317)"/>
<path d="M0 0 C0.66 0.33 1.32 0.66 2 1 C0.68 3.97 -0.64 6.94 -2 10 C-2.99 9.34 -3.98 8.68 -5 8 C-4.64950425 4.75791433 -4.43778819 3.38472296 -1.9375 1.1875 C-1.298125 0.795625 -0.65875 0.40375 0 0 Z " fill="#2B3C40" transform="translate(166,133)"/>
<path d="M0 0 C0.66 0 1.32 0 2 0 C2.66 0.99 3.32 1.98 4 3 C4.99 3 5.98 3 7 3 C6.67 5.31 6.34 7.62 6 10 C3.38275905 7.63202009 1.67138271 5.10399646 0 2 C0 1.34 0 0.68 0 0 Z " fill="#3D5F6B" transform="translate(128,309)"/>
<path d="M0 0 C0.33 0.66 0.66 1.32 1 2 C1.66 2 2.32 2 3 2 C3 4.31 3 6.62 3 9 C1.02 7.35 -0.96 5.7 -3 4 C-2.34 3.67 -1.68 3.34 -1 3 C-0.67 2.01 -0.34 1.02 0 0 Z " fill="#213C46" transform="translate(241,294)"/>
<path d="M0 0 C0.33 0.99 0.66 1.98 1 3 C3.01508358 3.73323796 3.01508358 3.73323796 5 4 C3.7625 4.0825 2.525 4.165 1.25 4.25 C-1.98882964 4.63475459 -2.87907883 4.90024003 -5.5 7.0625 C-5.995 7.701875 -6.49 8.34125 -7 9 C-7.66 8.67 -8.32 8.34 -9 8 C-6.03 5.36 -3.06 2.72 0 0 Z " fill="#3B5058" transform="translate(309,259)"/>
<path d="M0 0 C0.99 0.33 1.98 0.66 3 1 C2.34 2.98 1.68 4.96 1 7 C-0.98 7.33 -2.96 7.66 -5 8 C-4.34 6.68 -3.68 5.36 -3 4 C-2.34 4 -1.68 4 -1 4 C-0.67 2.68 -0.34 1.36 0 0 Z " fill="#3B6778" transform="translate(361,242)"/>
<path d="M0 0 C2.475 0.495 2.475 0.495 5 1 C5.33 2.98 5.66 4.96 6 7 C5.01 7.495 5.01 7.495 4 8 C4 7.01 4 6.02 4 5 C2.68 4.67 1.36 4.34 0 4 C0 2.68 0 1.36 0 0 Z " fill="#3E7791" transform="translate(189,241)"/>
<path d="M0 0 C0.66 0.33 1.32 0.66 2 1 C2 1.66 2 2.32 2 3 C2.99 3.66 3.98 4.32 5 5 C5 5.99 5 6.98 5 8 C1.74456771 7.65120368 0.98126893 6.97866739 -1.25 4.4375 C-2.11625 3.2309375 -2.11625 3.2309375 -3 2 C-2.01 1.34 -1.02 0.68 0 0 Z " fill="#6394A1" transform="translate(143,193)"/>
<path d="M0 0 C0.33 0.66 0.66 1.32 1 2 C1.99 2.33 2.98 2.66 4 3 C2.04669132 4.03041513 0.08718472 5.0490893 -1.875 6.0625 C-2.96554688 6.63097656 -4.05609375 7.19945312 -5.1796875 7.78515625 C-6.11039063 8.18605469 -7.04109375 8.58695313 -8 9 C-8.66 8.67 -9.32 8.34 -10 8 C-9.67 7.34 -9.34 6.68 -9 6 C-7.68 6 -6.36 6 -5 6 C-5 5.01 -5 4.02 -5 3 C-3.68 3.33 -2.36 3.66 -1 4 C-0.67 2.68 -0.34 1.36 0 0 Z " fill="#5C6970" transform="translate(192,128)"/>
<path d="M0 0 C2.475 0.99 2.475 0.99 5 2 C4.67 2.99 4.34 3.98 4 5 C2.68 4.67 1.36 4.34 0 4 C0 4.99 0 5.98 0 7 C-1.32 7 -2.64 7 -4 7 C-4 6.34 -4 5.68 -4 5 C-3.34 4.67 -2.68 4.34 -2 4 C-0.86649466 1.98330173 -0.86649466 1.98330173 0 0 Z " fill="#0B1F29" transform="translate(187,127)"/>
<path d="M0 0 C0.99 0 1.98 0 3 0 C3.042721 1.66611905 3.04063832 3.33382885 3 5 C2 6 2 6 -0.5625 6.0625 C-1.7690625 6.0315625 -1.7690625 6.0315625 -3 6 C-2.42655063 3.13275314 -2.1385485 2.1385485 0 0 Z " fill="#466B77" transform="translate(315,233)"/>
<path d="M0 0 C2.8125 -0.25 2.8125 -0.25 6 0 C7.875 1.8125 7.875 1.8125 9 4 C9 4.99 9 5.98 9 7 C5.18315774 5.44499019 2.80804268 2.96404505 0 0 Z " fill="#E4F1F4" transform="translate(206,211)"/>
<path d="M0 0 C2.31 1.98 4.62 3.96 7 6 C6.01 6.33 5.02 6.66 4 7 C3.01 6.34 2.02 5.68 1 5 C1 6.98 1 8.96 1 11 C0.67 11 0.34 11 0 11 C0 7.37 0 3.74 0 0 Z " fill="#5C6C72" transform="translate(129,196)"/>
<path d="M0 0 C0.86625 0.3403125 0.86625 0.3403125 1.75 0.6875 C1.42 2.0075 1.09 3.3275 0.75 4.6875 C-0.9 5.0175 -2.55 5.3475 -4.25 5.6875 C-4.25 5.0275 -4.25 4.3675 -4.25 3.6875 C-4.91 3.3575 -5.57 3.0275 -6.25 2.6875 C-2.80384615 -0.38942308 -2.80384615 -0.38942308 0 0 Z " fill="#46565B" transform="translate(174.25,129.3125)"/>
<path d="M0 0 C0 3 0 3 -1 6 C-1.66 6 -2.32 6 -3 6 C-3.33 6.99 -3.66 7.98 -4 9 C-5.65 9.33 -7.3 9.66 -9 10 C-8.06409496 8.8944811 -7.12620142 7.79064547 -6.1875 6.6875 C-5.66542969 6.07261719 -5.14335937 5.45773438 -4.60546875 4.82421875 C-3.12827531 3.14575321 -1.59960869 1.56117966 0 0 Z " fill="#385865" transform="translate(337,230)"/>
<path d="M0 0 C0.99 0 1.98 0 3 0 C3 5.61 3 11.22 3 17 C2.67 17 2.34 17 2 17 C1.95101562 16.07316406 1.90203125 15.14632812 1.8515625 14.19140625 C1.77679688 12.99386719 1.70203125 11.79632813 1.625 10.5625 C1.55539063 9.36753906 1.48578125 8.17257813 1.4140625 6.94140625 C1.27742188 5.97074219 1.14078125 5.00007812 1 4 C0.34 3.67 -0.32 3.34 -1 3 C-0.67 2.01 -0.34 1.02 0 0 Z " fill="#47545C" transform="translate(117,191)"/>
<path d="M0 0 C0.99 0.66 1.98 1.32 3 2 C1.68 3.65 0.36 5.3 -1 7 C-1.66 5.35 -2.32 3.7 -3 2 C-2.01 1.34 -1.02 0.68 0 0 Z M-3 7 C-2.34 7 -1.68 7 -1 7 C-1.33 8.32 -1.66 9.64 -2 11 C-2.66 10.01 -3.32 9.02 -4 8 C-3.67 7.67 -3.34 7.34 -3 7 Z " fill="#11232C" transform="translate(342,143)"/>
<path d="M0 0 C3 0 3 0 6 1 C2.535 3.97 2.535 3.97 -1 7 C-1.33 5.68 -1.66 4.36 -2 3 C-1.34 3 -0.68 3 0 3 C0 2.01 0 1.02 0 0 Z " fill="#26424C" transform="translate(265,284)"/>
<path d="M0 0 C0.66 0 1.32 0 2 0 C5 5.75 5 5.75 5 8 C3.35 8 1.7 8 0 8 C0 5.36 0 2.72 0 0 Z " fill="#8099A0" transform="translate(129,256)"/>
<path d="M0 0 C0.33 0 0.66 0 1 0 C1.21755666 5.4389165 1.10428384 9.87080814 -1 15 C-1.66 15 -2.32 15 -3 15 C-2.35812082 9.86496656 -1.31727753 5.0056546 0 0 Z " fill="#9AA8AD" transform="translate(120,210)"/>
<path d="M0 0 C0.99 0.33 1.98 0.66 3 1 C5.05893621 1.22325814 7.12233653 1.40705759 9.1875 1.5625 C10.27417969 1.64628906 11.36085938 1.73007813 12.48046875 1.81640625 C13.72763672 1.90728516 13.72763672 1.90728516 15 2 C15 2.33 15 2.66 15 3 C11.37 3.33 7.74 3.66 4 4 C4.33 4.99 4.66 5.98 5 7 C3.0625 6.3125 3.0625 6.3125 1 5 C0.25 2.375 0.25 2.375 0 0 Z " fill="#C2CBCF" transform="translate(256,106)"/>
<path d="M0 0 C0.99 0.33 1.98 0.66 3 1 C0.14723863 3.93200474 -2.65079784 6.64315404 -6 9 C-5.70381606 5.44579276 -5.19662957 4.19662957 -2.625 1.625 C-1.325625 0.820625 -1.325625 0.820625 0 0 Z " fill="#3E7281" transform="translate(294,210)"/>
<path d="M0 0 C2.97 0.33 5.94 0.66 9 1 C7.515 2.485 7.515 2.485 6 4 C5.67 4.99 5.34 5.98 5 7 C0 1.125 0 1.125 0 0 Z " fill="#638F99" transform="translate(134,188)"/>
<path d="M0 0 C-0.66 0 -1.32 0 -2 0 C-2.33 0.99 -2.66 1.98 -3 3 C-3.7425 3.12375 -4.485 3.2475 -5.25 3.375 C-7.80141485 3.95486701 -9.7267573 4.73708739 -12 6 C-6 -2.14285714 -6 -2.14285714 0 0 Z " fill="#3A484D" transform="translate(159,144)"/>
<path d="M0 0 C3 2 3 2 3.6875 4.625 C3.790625 5.40875 3.89375 6.1925 4 7 C2.68 7 1.36 7 0 7 C-0.33 7.66 -0.66 8.32 -1 9 C-1.07427838 5.65747276 -1.06546953 3.1964086 0 0 Z " fill="#4F8C97" transform="translate(256,120)"/>
<path d="M0 0 C4.95 1.98 4.95 1.98 10 4 C9.01 5.485 9.01 5.485 8 7 C8 6.34 8 5.68 8 5 C7.236875 5.061875 6.47375 5.12375 5.6875 5.1875 C3 5 3 5 1.1875 3.625 C0 2 0 2 0 0 Z " fill="#041B24" transform="translate(184,369)"/>
<path d="M0 0 C0.99 0.33 1.98 0.66 3 1 C3.6875 3.0625 3.6875 3.0625 4 5 C2.35 5.66 0.7 6.32 -1 7 C-1.04254356 5.00045254 -1.04080783 2.99958364 -1 1 C-0.67 0.67 -0.34 0.34 0 0 Z " fill="#233D4A" transform="translate(229,239)"/>
<path d="M0 0 C0.66 0.33 1.32 0.66 2 1 C1.3001048 4.14952839 0.34839851 7.0652503 -1 10 C-1.99 10.495 -1.99 10.495 -3 11 C-2.69217504 9.35328588 -2.37860766 7.70764424 -2.0625 6.0625 C-1.88847656 5.14597656 -1.71445312 4.22945312 -1.53515625 3.28515625 C-1 1 -1 1 0 0 Z " fill="#A0B5BC" transform="translate(376,231)"/>
<path d="M0 0 C1.32 0.66 2.64 1.32 4 2 C4 2.66 4 3.32 4 4 C4.66 4.33 5.32 4.66 6 5 C5.01 6.485 5.01 6.485 4 8 C2.35 6.02 0.7 4.04 -1 2 C-0.67 1.34 -0.34 0.68 0 0 Z " fill="#5E8E9F" transform="translate(225,184)"/>
<path d="M0 0 C2.97 0.495 2.97 0.495 6 1 C6 1.66 6 2.32 6 3 C4.02 3.99 2.04 4.98 0 6 C0 4.02 0 2.04 0 0 Z " fill="#3D4E57" transform="translate(162,145)"/>
<path d="M0 0 C1.98 0 3.96 0 6 0 C6 1.32 6 2.64 6 4 C5.01 4.33 4.02 4.66 3 5 C1.5 3.625 1.5 3.625 0 2 C0 1.34 0 0.68 0 0 Z " fill="#13262B" transform="translate(264,114)"/>
<path d="M0 0 C2.475 0.99 2.475 0.99 5 2 C4.67 2.99 4.34 3.98 4 5 C3.01 5.33 2.02 5.66 1 6 C0.34 5.67 -0.32 5.34 -1 5 C-0.67 3.35 -0.34 1.7 0 0 Z " fill="#0F202B" transform="translate(259,345)"/>
<path d="M0 0 C0.66 0.33 1.32 0.66 2 1 C1.3125 3.4375 1.3125 3.4375 0 6 C-2.625 6.8125 -2.625 6.8125 -5 7 C-3.35 4.69 -1.7 2.38 0 0 Z " fill="#202F35" transform="translate(262,306)"/>
<path d="M0 0 C0.33 0.66 0.66 1.32 1 2 C-1.85276137 4.93200474 -4.65079784 7.64315404 -8 10 C-6.34908222 5.70761377 -3.26245434 3.1206085 0 0 Z " fill="#E0EEF3" transform="translate(288,267)"/>
<path d="M0 0 C-1.65 1.65 -3.3 3.3 -5 5 C-5.33 4.01 -5.66 3.02 -6 2 C-8.00016466 0.79117904 -8.00016466 0.79117904 -10 0 C-6.33694766 -0.74926071 -3.57644848 -1.2380014 0 0 Z " fill="#749EA8" transform="translate(365,189)"/>
<path d="M0 0 C0.598125 0.350625 1.19625 0.70125 1.8125 1.0625 C1.1525 1.0625 0.4925 1.0625 -0.1875 1.0625 C-0.1875 1.7225 -0.1875 2.3825 -0.1875 3.0625 C-1.8375 3.7225 -3.4875 4.3825 -5.1875 5.0625 C-5.1875 3.4125 -5.1875 1.7625 -5.1875 0.0625 C-2.1875 -0.9375 -2.1875 -0.9375 0 0 Z " fill="#466878" transform="translate(165.1875,297.9375)"/>
<path d="M0 0 C0 3.57575896 -1.08840607 5.05295935 -3 8 C-4.32 7.67 -5.64 7.34 -7 7 C-4.69 4.69 -2.38 2.38 0 0 Z " fill="#496A72" transform="translate(321,246)"/>
<path d="M0 0 C0.99 0.66 1.98 1.32 3 2 C1.68 4.64 0.36 7.28 -1 10 C-1.33 10 -1.66 10 -2 10 C-2.17942163 6.05272412 -2.09350689 3.4019487 0 0 Z " fill="#192B33" transform="translate(262,225)"/>
<path d="M0 0 C1.35439668 2.70879335 1.06501451 5.00933268 1 8 C-0.65 6.68 -2.3 5.36 -4 4 C-3.67 3.01 -3.34 2.02 -3 1 C-2.01 0.67 -1.02 0.34 0 0 Z " fill="#3B6371" transform="translate(175,224)"/>
<path d="M0 0 C1.32 0.66 2.64 1.32 4 2 C3.01 2.99 2.02 3.98 1 5 C0.34 4.67 -0.32 4.34 -1 4 C-1 5.65 -1 7.3 -1 9 C-1.33 9 -1.66 9 -2 9 C-2.33 6.69 -2.66 4.38 -3 2 C-2.01 2 -1.02 2 0 2 C0 1.34 0 0.68 0 0 Z " fill="#D1DDDF" transform="translate(371,195)"/>
<path d="M0 0 C4.67692308 1.47692308 4.67692308 1.47692308 6.3125 4.125 C6.539375 4.74375 6.76625 5.3625 7 6 C6.34 6.66 5.68 7.32 5 8 C5 7.34 5 6.68 5 6 C4.34 6 3.68 6 3 6 C1.375 4.6875 1.375 4.6875 0 3 C0 2.01 0 1.02 0 0 Z " fill="#5C8A93" transform="translate(266,134)"/>
<path d="M0 0 C0.99 0.33 1.98 0.66 3 1 C2.01 1 1.02 1 0 1 C0 0.67 0 0.34 0 0 Z M-1 2 C-0.34 2 0.32 2 1 2 C0.67 3.65 0.34 5.3 0 7 C-3.875 5.25 -3.875 5.25 -5 3 C-3.68 3.33 -2.36 3.66 -1 4 C-1 3.34 -1 2.68 -1 2 Z " fill="#2D424B" transform="translate(163,361)"/>
<path d="M0 0 C1.32 0.66 2.64 1.32 4 2 C3.67 3.65 3.34 5.3 3 7 C2.01 6.67 1.02 6.34 0 6 C0.33 5.67 0.66 5.34 1 5 C0.01 4.01 -0.98 3.02 -2 2 C-1.34 2 -0.68 2 0 2 C0 1.34 0 0.68 0 0 Z " fill="#2E4955" transform="translate(215,320)"/>
<path d="M0 0 C4.2742558 1.5830577 6.26531794 4.50568404 9 8 C6 8 6 8 3.8125 6.125 C2 4 2 4 2 2 C1.34 2 0.68 2 0 2 C0 1.34 0 0.68 0 0 Z " fill="#617C87" transform="translate(142,278)"/>
<path d="M0 0 C0.66 0.99 1.32 1.98 2 3 C0.35 4.65 -1.3 6.3 -3 8 C-3.66 7.67 -4.32 7.34 -5 7 C-1.125 1.125 -1.125 1.125 0 0 Z " fill="#32535E" transform="translate(325,242)"/>
<path d="M0 0 C3.16115776 1.36983503 3.9927092 1.9890638 6 5 C4.02 5.33 2.04 5.66 0 6 C0 4.02 0 2.04 0 0 Z " fill="#3B545F" transform="translate(149,218)"/>
<path d="M0 0 C0 3 0 3 -2 5.1875 C-2.66 5.785625 -3.32 6.38375 -4 7 C-4.33 5.68 -4.66 4.36 -5 3 C-3.35 2.01 -1.7 1.02 0 0 Z " fill="#568996" transform="translate(309,201)"/>
<path d="M0 0 C0.66 1.32 1.32 2.64 2 4 C-1.48058971 6.32039314 -1.98142912 6 -6 6 C-4.02 4.02 -2.04 2.04 0 0 Z " fill="#456D74" transform="translate(364,202)"/>
<path d="M0 0 C-0.99 1.485 -0.99 1.485 -2 3 C-4.97 2.67 -7.94 2.34 -11 2 C-6.78370866 -0.10814567 -4.60209225 -0.17700355 0 0 Z " fill="#5F8B9B" transform="translate(331,196)"/>
<path d="M0 0 C3 3.625 3 3.625 3 7 C1.68 7 0.36 7 -1 7 C-1.04254356 5.00045254 -1.04080783 2.99958364 -1 1 C-0.67 0.67 -0.34 0.34 0 0 Z " fill="#0B1D2A" transform="translate(363,171)"/>
<path d="M0 0 C1.0625 1.875 1.0625 1.875 2 4 C1 6 1 6 -1 7 C-1 6.34 -1 5.68 -1 5 C-1.99 5.33 -2.98 5.66 -4 6 C-2.84826645 3.53199953 -1.95216435 1.95216435 0 0 Z " fill="#4B575D" transform="translate(142,154)"/>
<path d="M0 0 C0 1.98 0 3.96 0 6 C-0.99 5.34 -1.98 4.68 -3 4 C-3.99 4.99 -4.98 5.98 -6 7 C-6 6.01 -6 5.02 -6 4 C-1.54285714 0 -1.54285714 0 0 0 Z " fill="#65B4C4" transform="translate(244,124)"/>
<path d="M0 0 C0.66 0.33 1.32 0.66 2 1 C1.60196439 3.88575819 1.20990931 4.82189513 -1.0625 6.75 C-1.701875 7.1625 -2.34125 7.575 -3 8 C-3.33 7.34 -3.66 6.68 -4 6 C-3.34 6 -2.68 6 -2 6 C-1.7834375 5.071875 -1.7834375 5.071875 -1.5625 4.125 C-1 2 -1 2 0 0 Z " fill="#436975" transform="translate(323,226)"/>
<path d="M0 0 C1.32 0.66 2.64 1.32 4 2 C3.34 2 2.68 2 2 2 C2 2.99 2 3.98 2 5 C0.68 5.33 -0.64 5.66 -2 6 C-2 4.68 -2 3.36 -2 2 C-1.34 2 -0.68 2 0 2 C0 1.34 0 0.68 0 0 Z " fill="#0D1F27" transform="translate(382,211)"/>
<path d="M0 0 C0.66 0.33 1.32 0.66 2 1 C-2.625 5.875 -2.625 5.875 -6 7 C-4.60667426 3.63279613 -3.0210714 2.0140476 0 0 Z " fill="#DEE5EA" transform="translate(286,204)"/>
<path d="M0 0 C0.99 0.33 1.98 0.66 3 1 C3 3.31 3 5.62 3 8 C0.9375 6.25 0.9375 6.25 -1 4 C-0.75 1.75 -0.75 1.75 0 0 Z " fill="#081823" transform="translate(116,194)"/>
<path d="M0 0 C0.66 0.33 1.32 0.66 2 1 C1.67 2.98 1.34 4.96 1 7 C0.01 7.33 -0.98 7.66 -2 8 C-2.33 7.34 -2.66 6.68 -3 6 C-2.67 5.34 -2.34 4.68 -2 4 C-1.34 4 -0.68 4 0 4 C0 2.68 0 1.36 0 0 Z " fill="#69A8B9" transform="translate(220,150)"/>
<path d="M0 0 C0.66 0 1.32 0 2 0 C2 0.66 2 1.32 2 2 C2.66 2.33 3.32 2.66 4 3 C4 3.99 4 4.98 4 6 C2.68 6 1.36 6 0 6 C0 4.02 0 2.04 0 0 Z " fill="#13242B" transform="translate(309,377)"/>
<path d="M0 0 C1.65 1.32 3.3 2.64 5 4 C4.67 4.99 4.34 5.98 4 7 C2 5.75 2 5.75 0 4 C0 2.68 0 1.36 0 0 Z " fill="#061D26" transform="translate(145,337)"/>
<path d="M0 0 C0.99 0.33 1.98 0.66 3 1 C2.67 2.32 2.34 3.64 2 5 C0.68 4.67 -0.64 4.34 -2 4 C-1.34 2.68 -0.68 1.36 0 0 Z " fill="#15262D" transform="translate(362,337)"/>
<path d="M0 0 C0.66 0.33 1.32 0.66 2 1 C0.62845496 3.95409701 -0.98863724 6.44008376 -3 9 C-3.33 7.35 -3.66 5.7 -4 4 C-2.68 3.67 -1.36 3.34 0 3 C0 2.01 0 1.02 0 0 Z " fill="#4D6269" transform="translate(371,327)"/>
<path d="M0 0 C2.475 0.495 2.475 0.495 5 1 C5.33 2.98 5.66 4.96 6 7 C1.125 2.25 1.125 2.25 0 0 Z " fill="#21313B" transform="translate(239,328)"/>
<path d="M0 0 C1.32 0.33 2.64 0.66 4 1 C2.37660195 2.70884005 0.70680947 4.37446717 -1 6 C-1.66 6 -2.32 6 -3 6 C-3.33 5.01 -3.66 4.02 -4 3 C-3.01 3 -2.02 3 -1 3 C-0.67 2.01 -0.34 1.02 0 0 Z " fill="#20323D" transform="translate(261,322)"/>
<path d="M0 0 C-1.39332574 3.36720387 -2.9789286 4.9859524 -6 7 C-5.37162381 3.35541809 -4.14650034 0 0 0 Z " fill="#6C959C" transform="translate(313,241)"/>
<path d="M0 0 C3.25543229 0.34879632 4.01873107 1.02133261 6.25 3.5625 C6.8275 4.366875 7.405 5.17125 8 6 C5.6875 5.8125 5.6875 5.8125 3 5 C1.1875 2.4375 1.1875 2.4375 0 0 Z " fill="#2D4D55" transform="translate(133,203)"/>
<path d="M0 0 C2 1 2 1 3.125 4.0625 C3.41375 5.031875 3.7025 6.00125 4 7 C3.01 7.33 2.02 7.66 1 8 C1 7.01 1 6.02 1 5 C0.01 4.67 -0.98 4.34 -2 4 C-1.34 2.68 -0.68 1.36 0 0 Z " fill="#112C3A" transform="translate(236,199)"/>
<path d="M0 0 C2.475 0.495 2.475 0.495 5 1 C5 1.99 5 2.98 5 4 C5.99 4.33 6.98 4.66 8 5 C5.6875 5.3125 5.6875 5.3125 3 5 C1.1875 2.5 1.1875 2.5 0 0 Z " fill="#495960" transform="translate(357,174)"/>
<path d="M0 0 C-0.33 0.66 -0.66 1.32 -1 2 C-3.375 2.75 -3.375 2.75 -6 3 C-6.99 2.34 -7.98 1.68 -9 1 C-3.375 -1.125 -3.375 -1.125 0 0 Z " fill="#0E2127" transform="translate(210,115)"/>
<path d="M0 0 C1.32 0 2.64 0 4 0 C4.33 1.32 4.66 2.64 5 4 C3.68 4.33 2.36 4.66 1 5 C0.67 3.35 0.34 1.7 0 0 Z " fill="#17292F" transform="translate(320,372)"/>
<path d="M0 0 C1.65 0.33 3.3 0.66 5 1 C4.34 2.65 3.68 4.3 3 6 C1.68 5.34 0.36 4.68 -1 4 C-0.67 2.68 -0.34 1.36 0 0 Z " fill="#42616F" transform="translate(178,305)"/>
<path d="M0 0 C0.66 0.66 1.32 1.32 2 2 C1.67 2.66 1.34 3.32 1 4 C1.99 3.67 2.98 3.34 4 3 C4 4.32 4 5.64 4 7 C2.0625 6.1875 2.0625 6.1875 0 5 C-0.33 4.01 -0.66 3.02 -1 2 C-0.67 1.34 -0.34 0.68 0 0 Z " fill="#13252D" transform="translate(211,265)"/>
<path d="M0 0 C0.99 0.33 1.98 0.66 3 1 C3 2.65 3 4.3 3 6 C2.01 6.33 1.02 6.66 0 7 C0 4.69 0 2.38 0 0 Z " fill="#0E1D25" transform="translate(385,204)"/>
<path d="M0 0 C3.465 1.485 3.465 1.485 7 3 C6.01 3.33 5.02 3.66 4 4 C3.67 4.66 3.34 5.32 3 6 C3 5.34 3 4.68 3 4 C2.01 3.67 1.02 3.34 0 3 C0 2.01 0 1.02 0 0 Z " fill="#50646C" transform="translate(315,123)"/>
<path d="M0 0 C2.625 0.375 2.625 0.375 5 1 C5.33 1.99 5.66 2.98 6 4 C3.36 3.34 0.72 2.68 -2 2 C-1.34 1.34 -0.68 0.68 0 0 Z " fill="#0D1E24" transform="translate(284,120)"/>
</svg>
